<svg xmlns="http://www.w3.org/2000/svg" xmlns:xlink="http://www.w3.org/1999/xlink" width="750" zoomAndPan="magnify" viewBox="0 0 562.5 281.25" height="375" preserveAspectRatio="xMidYMid meet" version="1.0"><defs><clipPath id="76c6b60ef7"><path d="M 445 75 L 561.503906 75 L 561.503906 77 L 445 77 Z M 445 75 " clip-rule="nonzero"/></clipPath><clipPath id="c615804238"><path d="M 92 159 L 94 159 L 94 280.503906 L 92 280.503906 Z M 92 159 " clip-rule="nonzero"/></clipPath></defs><path stroke-linecap="round" transform="matrix(0, 0.671845, -0.671831, 0, 564.578745, -0.907105)" fill="none" stroke-linejoin="round" d="M 0.00127292 177.210155 L 114.448216 177.210155 " stroke="#000000" stroke-width="0.85" stroke-opacity="1" stroke-miterlimit="4"/><g clip-path="url(#76c6b60ef7)"><path stroke-linecap="round" transform="matrix(0, 0.671845, -0.671831, 0, 564.578745, -0.907105)" fill="none" stroke-linejoin="round" d="M 114.448216 177.210155 L 114.448216 1.890581 " stroke="#000000" stroke-width="0.85" stroke-opacity="1" stroke-miterlimit="4"/></g><path stroke-linecap="round" transform="matrix(0, 0.671845, -0.671831, 0, 564.578745, -0.907105)" fill="none" stroke-linejoin="round" d="M 181.631432 702.20951 L 181.631432 706.407458 " stroke="#000000" stroke-width="0.85" stroke-opacity="1" stroke-miterlimit="4"/><path stroke-linecap="round" transform="matrix(0, 0.671845, -0.671831, 0, 564.578745, -0.907105)" fill="none" stroke-linejoin="round" d="M 181.631432 706.407458 L 156.293098 706.407458 " stroke="#000000" stroke-width="0.85" stroke-opacity="1" stroke-miterlimit="4"/><path stroke-linecap="round" transform="matrix(0, 0.671845, -0.671831, 0, 564.578745, -0.907105)" fill="none" stroke-linejoin="round" d="M 156.293098 706.407458 L 156.293098 752.608146 " stroke="#000000" stroke-width="0.85" stroke-opacity="1" stroke-miterlimit="4"/><path stroke-linecap="round" transform="matrix(0, 0.671845, -0.671831, 0, 564.578745, -0.907105)" fill="none" stroke-linejoin="round" d="M 181.631432 792.744484 L 239.494467 792.744484 " stroke="#000000" stroke-width="0.85" stroke-opacity="1" stroke-miterlimit="4"/><path stroke-linecap="round" transform="matrix(0, 0.671845, -0.671831, 0, 564.578745, -0.907105)" fill="none" stroke-linejoin="round" d="M 239.494467 792.744484 L 239.494467 751.485979 " stroke="#000000" stroke-width="0.85" stroke-opacity="1" stroke-miterlimit="4"/><path stroke-linecap="round" transform="matrix(0, 0.671845, -0.671831, 0, 564.578745, -0.907105)" fill="none" stroke-linejoin="round" d="M 239.494467 751.485979 L 264.908387 751.485979 " stroke="#000000" stroke-width="0.85" stroke-opacity="1" stroke-miterlimit="4"/><path stroke-linecap="round" transform="matrix(0, 0.671845, -0.671831, 0, 564.578745, -0.907105)" fill="none" stroke-linejoin="round" d="M 264.908387 706.407458 L 239.494467 706.407458 " stroke="#000000" stroke-width="0.85" stroke-opacity="1" stroke-miterlimit="4"/><path stroke-linecap="round" transform="matrix(0, 0.671845, -0.671831, 0, 564.578745, -0.907105)" fill="none" stroke-linejoin="round" d="M 0.00127292 702.20951 L 181.631432 702.20951 " stroke="#000000" stroke-width="0.85" stroke-opacity="1" stroke-miterlimit="4"/><g clip-path="url(#c615804238)"><path stroke-linecap="round" transform="matrix(0, 0.671845, -0.671831, 0, 564.578745, -0.907105)" fill="none" stroke-linejoin="round" d="M 239.494467 702.20951 L 420.002484 702.20951 " stroke="#000000" stroke-width="0.85" stroke-opacity="1" stroke-miterlimit="4"/></g><path stroke-linecap="round" transform="matrix(0, 0.671845, -0.671831, 0, 564.578745, -0.907105)" fill="none" stroke-linejoin="round" d="M 264.908387 751.485979 L 264.908387 706.407458 " stroke="#000000" stroke-width="0.85" stroke-opacity="1" stroke-miterlimit="4"/><path stroke-linecap="round" transform="matrix(0, 0.671845, -0.671831, 0, 564.578745, -0.907105)" fill="none" stroke-linejoin="round" d="M 239.494467 706.407458 L 239.494467 702.20951 " stroke="#000000" stroke-width="0.85" stroke-opacity="1" stroke-miterlimit="4"/><path stroke-linecap="round" transform="matrix(0, 0.671845, -0.671831, 0, 564.578745, -0.907105)" fill="none" stroke-linejoin="round" d="M 156.293098 752.608146 L 181.631432 752.608146 " stroke="#000000" stroke-width="0.85" stroke-opacity="1" stroke-miterlimit="4"/><path stroke-linecap="round" transform="matrix(0, 0.671845, -0.671831, 0, 564.578745, -0.907105)" fill="none" stroke-linejoin="round" d="M 181.631432 752.608146 L 181.631432 792.744484 " stroke="#000000" stroke-width="0.85" stroke-opacity="1" stroke-miterlimit="4"/><path stroke-linecap="round" transform="matrix(0, 0.671845, -0.671831, 0, 564.578745, -0.907105)" fill="none" stroke-linejoin="round" d="M 177.218446 469.00244 L 142.990181 469.00244 " stroke="#000000" stroke-width="0.85" stroke-opacity="1" stroke-miterlimit="4"/><path stroke-linecap="round" transform="matrix(0, 0.671845, -0.671831, 0, 564.578745, -0.907105)" fill="none" stroke-linejoin="round" d="M 142.990181 470.682782 L 177.218446 470.682782 " stroke="#000000" stroke-width="0.85" stroke-opacity="1" stroke-miterlimit="4"/><path stroke-linecap="round" transform="matrix(0, 0.671845, -0.671831, 0, 564.578745, -0.907105)" fill="none" stroke-linejoin="round" d="M 209.138468 424.272779 L 231.819708 424.272779 " stroke="#000000" stroke-width="0.85" stroke-opacity="1" stroke-miterlimit="4"/><path stroke-linecap="round" transform="matrix(0, 0.671845, -0.671831, 0, 564.578745, -0.907105)" fill="none" stroke-linejoin="round" d="M 231.819708 422.592437 L 209.138468 422.592437 " stroke="#000000" stroke-width="0.85" stroke-opacity="1" stroke-miterlimit="4"/><path stroke-linecap="round" transform="matrix(0, 0.671845, -0.671831, 0, 564.578745, -0.907105)" fill="none" stroke-linejoin="round" d="M 231.819708 469.00244 L 209.138468 469.00244 " stroke="#000000" stroke-width="0.85" stroke-opacity="1" stroke-miterlimit="4"/><path stroke-linecap="round" transform="matrix(0, 0.671845, -0.671831, 0, 564.578745, -0.907105)" fill="none" stroke-linejoin="round" d="M 209.138468 470.682782 L 231.819708 470.682782 " stroke="#000000" stroke-width="0.85" stroke-opacity="1" stroke-miterlimit="4"/><path stroke-linecap="round" transform="matrix(0, 0.671845, -0.671831, 0, 564.578745, -0.907105)" fill="none" stroke-linejoin="round" d="M 177.218446 422.592437 L 142.990181 422.592437 " stroke="#000000" stroke-width="0.85" stroke-opacity="1" stroke-miterlimit="4"/><path stroke-linecap="round" transform="matrix(0, 0.671845, -0.671831, 0, 564.578745, -0.907105)" fill="none" stroke-linejoin="round" d="M 142.990181 424.272779 L 177.218446 424.272779 " stroke="#000000" stroke-width="0.85" stroke-opacity="1" stroke-miterlimit="4"/><path stroke-linecap="round" transform="matrix(0, 0.671845, -0.671831, 0, 564.578745, -0.907105)" fill="none" stroke-linejoin="round" d="M 177.218446 555.316209 L 142.990181 555.316209 " stroke="#000000" stroke-width="0.85" stroke-opacity="1" stroke-miterlimit="4"/><path stroke-linecap="round" transform="matrix(0, 0.671845, -0.671831, 0, 564.578745, -0.907105)" fill="none" stroke-linejoin="round" d="M 142.990181 556.996551 L 177.218446 556.996551 " stroke="#000000" stroke-width="0.85" stroke-opacity="1" stroke-miterlimit="4"/><path stroke-linecap="round" transform="matrix(0, 0.671845, -0.671831, 0, 564.578745, -0.907105)" fill="none" stroke-linejoin="round" d="M 142.990181 377.862775 L 177.218446 377.862775 " stroke="#000000" stroke-width="0.85" stroke-opacity="1" stroke-miterlimit="4"/><path stroke-linecap="round" transform="matrix(0, 0.671845, -0.671831, 0, 564.578745, -0.907105)" fill="none" stroke-linejoin="round" d="M 177.218446 376.182433 L 142.990181 376.182433 " stroke="#000000" stroke-width="0.85" stroke-opacity="1" stroke-miterlimit="4"/><path stroke-linecap="round" transform="matrix(0, 0.671845, -0.671831, 0, 564.578745, -0.907105)" fill="none" stroke-linejoin="round" d="M 177.218446 190.542419 L 142.990181 190.542419 " stroke="#000000" stroke-width="0.85" stroke-opacity="1" stroke-miterlimit="4"/><path stroke-linecap="round" transform="matrix(0, 0.671845, -0.671831, 0, 564.578745, -0.907105)" fill="none" stroke-linejoin="round" d="M 142.990181 192.222762 L 177.218446 192.222762 " stroke="#000000" stroke-width="0.85" stroke-opacity="1" stroke-miterlimit="4"/><path stroke-linecap="round" transform="matrix(0, 0.671845, -0.671831, 0, 564.578745, -0.907105)" fill="none" stroke-linejoin="round" d="M 111.070159 190.542419 L 76.841895 190.542419 " stroke="#000000" stroke-width="0.85" stroke-opacity="1" stroke-miterlimit="4"/><path stroke-linecap="round" transform="matrix(0, 0.671845, -0.671831, 0, 564.578745, -0.907105)" fill="none" stroke-linejoin="round" d="M 76.841895 192.222762 L 111.070159 192.222762 " stroke="#000000" stroke-width="0.85" stroke-opacity="1" stroke-miterlimit="4"/><path stroke-linecap="round" transform="matrix(0, 0.671845, -0.671831, 0, 564.578745, -0.907105)" fill="none" stroke-linejoin="round" d="M 111.070159 283.362426 L 76.841895 283.362426 " stroke="#000000" stroke-width="0.85" stroke-opacity="1" stroke-miterlimit="4"/><path stroke-linecap="round" transform="matrix(0, 0.671845, -0.671831, 0, 564.578745, -0.907105)" fill="none" stroke-linejoin="round" d="M 76.841895 285.042768 L 111.070159 285.042768 " stroke="#000000" stroke-width="0.85" stroke-opacity="1" stroke-miterlimit="4"/><path stroke-linecap="round" transform="matrix(0, 0.671845, -0.671831, 0, 564.578745, -0.907105)" fill="none" stroke-linejoin="round" d="M 111.070159 329.77243 L 76.841895 329.77243 " stroke="#000000" stroke-width="0.85" stroke-opacity="1" stroke-miterlimit="4"/><path stroke-linecap="round" transform="matrix(0, 0.671845, -0.671831, 0, 564.578745, -0.907105)" fill="none" stroke-linejoin="round" d="M 76.841895 331.452772 L 111.070159 331.452772 " stroke="#000000" stroke-width="0.85" stroke-opacity="1" stroke-miterlimit="4"/><path stroke-linecap="round" transform="matrix(0, 0.671845, -0.671831, 0, 564.578745, -0.907105)" fill="none" stroke-linejoin="round" d="M 111.070159 376.182433 L 76.841895 376.182433 " stroke="#000000" stroke-width="0.85" stroke-opacity="1" stroke-miterlimit="4"/><path stroke-linecap="round" transform="matrix(0, 0.671845, -0.671831, 0, 564.578745, -0.907105)" fill="none" stroke-linejoin="round" d="M 76.841895 377.862775 L 111.070159 377.862775 " stroke="#000000" stroke-width="0.85" stroke-opacity="1" stroke-miterlimit="4"/><path stroke-linecap="round" transform="matrix(0, 0.671845, -0.671831, 0, 564.578745, -0.907105)" fill="none" stroke-linejoin="round" d="M 231.819708 515.412444 L 209.138468 515.412444 " stroke="#000000" stroke-width="0.85" stroke-opacity="1" stroke-miterlimit="4"/><path stroke-linecap="round" transform="matrix(0, 0.671845, -0.671831, 0, 564.578745, -0.907105)" fill="none" stroke-linejoin="round" d="M 209.138468 517.092786 L 231.819708 517.092786 " stroke="#000000" stroke-width="0.85" stroke-opacity="1" stroke-miterlimit="4"/><path stroke-linecap="round" transform="matrix(0, 0.671845, -0.671831, 0, 564.578745, -0.907105)" fill="none" stroke-linejoin="round" d="M 177.218446 515.412444 L 142.990181 515.412444 " stroke="#000000" stroke-width="0.85" stroke-opacity="1" stroke-miterlimit="4"/><path stroke-linecap="round" transform="matrix(0, 0.671845, -0.671831, 0, 564.578745, -0.907105)" fill="none" stroke-linejoin="round" d="M 142.990181 517.092786 L 177.218446 517.092786 " stroke="#000000" stroke-width="0.85" stroke-opacity="1" stroke-miterlimit="4"/><path stroke-linecap="round" transform="matrix(0, 0.671845, -0.671831, 0, 564.578745, -0.907105)" fill="none" stroke-linejoin="round" d="M 111.070159 648.136216 L 76.841895 648.136216 " stroke="#000000" stroke-width="0.85" stroke-opacity="1" stroke-miterlimit="4"/><path stroke-linecap="round" transform="matrix(0, 0.671845, -0.671831, 0, 564.578745, -0.907105)" fill="none" stroke-linejoin="round" d="M 76.841895 649.816558 L 111.070159 649.816558 " stroke="#000000" stroke-width="0.85" stroke-opacity="1" stroke-miterlimit="4"/><path stroke-linecap="round" transform="matrix(0, 0.671845, -0.671831, 0, 564.578745, -0.907105)" fill="none" stroke-linejoin="round" d="M 111.070159 422.592437 L 76.841895 422.592437 " stroke="#000000" stroke-width="0.85" stroke-opacity="1" stroke-miterlimit="4"/><path stroke-linecap="round" transform="matrix(0, 0.671845, -0.671831, 0, 564.578745, -0.907105)" fill="none" stroke-linejoin="round" d="M 76.841895 424.272779 L 111.070159 424.272779 " stroke="#000000" stroke-width="0.85" stroke-opacity="1" stroke-miterlimit="4"/><path stroke-linecap="round" transform="matrix(0, 0.671845, -0.671831, 0, 564.578745, -0.907105)" fill="none" stroke-linejoin="round" d="M 76.841895 470.682782 L 111.070159 470.682782 " stroke="#000000" stroke-width="0.85" stroke-opacity="1" stroke-miterlimit="4"/><path stroke-linecap="round" transform="matrix(0, 0.671845, -0.671831, 0, 564.578745, -0.907105)" fill="none" stroke-linejoin="round" d="M 111.070159 469.00244 L 76.841895 469.00244 " stroke="#000000" stroke-width="0.85" stroke-opacity="1" stroke-miterlimit="4"/><path stroke-linecap="round" transform="matrix(0, 0.671845, -0.671831, 0, 564.578745, -0.907105)" fill="none" stroke-linejoin="round" d="M 76.841895 238.632765 L 111.070159 238.632765 " stroke="#000000" stroke-width="0.85" stroke-opacity="1" stroke-miterlimit="4"/><path stroke-linecap="round" transform="matrix(0, 0.671845, -0.671831, 0, 564.578745, -0.907105)" fill="none" stroke-linejoin="round" d="M 111.070159 236.952423 L 76.841895 236.952423 " stroke="#000000" stroke-width="0.85" stroke-opacity="1" stroke-miterlimit="4"/><path stroke-linecap="round" transform="matrix(0, 0.671845, -0.671831, 0, 564.578745, -0.907105)" fill="none" stroke-linejoin="round" d="M 231.819708 329.77243 L 209.138468 329.77243 " stroke="#000000" stroke-width="0.85" stroke-opacity="1" stroke-miterlimit="4"/><path stroke-linecap="round" transform="matrix(0, 0.671845, -0.671831, 0, 564.578745, -0.907105)" fill="none" stroke-linejoin="round" d="M 209.138468 331.452772 L 231.819708 331.452772 " stroke="#000000" stroke-width="0.85" stroke-opacity="1" stroke-miterlimit="4"/><path stroke-linecap="round" transform="matrix(0, 0.671845, -0.671831, 0, 564.578745, -0.907105)" fill="none" stroke-linejoin="round" d="M 231.819708 376.182433 L 209.138468 376.182433 " stroke="#000000" stroke-width="0.85" stroke-opacity="1" stroke-miterlimit="4"/><path stroke-linecap="round" transform="matrix(0, 0.671845, -0.671831, 0, 564.578745, -0.907105)" fill="none" stroke-linejoin="round" d="M 209.138468 377.862775 L 231.819708 377.862775 " stroke="#000000" stroke-width="0.85" stroke-opacity="1" stroke-miterlimit="4"/><path stroke-linecap="round" transform="matrix(0, 0.671845, -0.671831, 0, 564.578745, -0.907105)" fill="none" stroke-linejoin="round" d="M 111.070159 515.412444 L 76.841895 515.412444 " stroke="#000000" stroke-width="0.85" stroke-opacity="1" stroke-miterlimit="4"/><path stroke-linecap="round" transform="matrix(0, 0.671845, -0.671831, 0, 564.578745, -0.907105)" fill="none" stroke-linejoin="round" d="M 76.841895 517.092786 L 111.070159 517.092786 " stroke="#000000" stroke-width="0.85" stroke-opacity="1" stroke-miterlimit="4"/><path stroke-linecap="round" transform="matrix(0, 0.671845, -0.671831, 0, 564.578745, -0.907105)" fill="none" stroke-linejoin="round" d="M 177.218446 236.952423 L 142.990181 236.952423 " stroke="#000000" stroke-width="0.85" stroke-opacity="1" stroke-miterlimit="4"/><path stroke-linecap="round" transform="matrix(0, 0.671845, -0.671831, 0, 564.578745, -0.907105)" fill="none" stroke-linejoin="round" d="M 142.990181 238.632765 L 177.218446 238.632765 " stroke="#000000" stroke-width="0.85" stroke-opacity="1" stroke-miterlimit="4"/><path stroke-linecap="round" transform="matrix(0, 0.671845, -0.671831, 0, 564.578745, -0.907105)" fill="none" stroke-linejoin="round" d="M 76.841895 556.996551 L 111.070159 556.996551 " stroke="#000000" stroke-width="0.85" stroke-opacity="1" stroke-miterlimit="4"/><path stroke-linecap="round" transform="matrix(0, 0.671845, -0.671831, 0, 564.578745, -0.907105)" fill="none" stroke-linejoin="round" d="M 111.070159 555.316209 L 76.841895 555.316209 " stroke="#000000" stroke-width="0.85" stroke-opacity="1" stroke-miterlimit="4"/><path stroke-linecap="round" transform="matrix(0, 0.671845, -0.671831, 0, 564.578745, -0.907105)" fill="none" stroke-linejoin="round" d="M 177.218446 283.362426 L 142.990181 283.362426 " stroke="#000000" stroke-width="0.85" stroke-opacity="1" stroke-miterlimit="4"/><path stroke-linecap="round" transform="matrix(0, 0.671845, -0.671831, 0, 564.578745, -0.907105)" fill="none" stroke-linejoin="round" d="M 142.990181 285.042768 L 177.218446 285.042768 " stroke="#000000" stroke-width="0.85" stroke-opacity="1" stroke-miterlimit="4"/><path stroke-linecap="round" transform="matrix(0, 0.671845, -0.671831, 0, 564.578745, -0.907105)" fill="none" stroke-linejoin="round" d="M 231.819708 283.362426 L 209.138468 283.362426 " stroke="#000000" stroke-width="0.85" stroke-opacity="1" stroke-miterlimit="4"/><path stroke-linecap="round" transform="matrix(0, 0.671845, -0.671831, 0, 564.578745, -0.907105)" fill="none" stroke-linejoin="round" d="M 209.138468 285.042768 L 231.819708 285.042768 " stroke="#000000" stroke-width="0.85" stroke-opacity="1" stroke-miterlimit="4"/><path stroke-linecap="round" transform="matrix(0, 0.671845, -0.671831, 0, 564.578745, -0.907105)" fill="none" stroke-linejoin="round" d="M 177.218446 329.77243 L 142.990181 329.77243 " stroke="#000000" stroke-width="0.85" stroke-opacity="1" stroke-miterlimit="4"/><path stroke-linecap="round" transform="matrix(0, 0.671845, -0.671831, 0, 564.578745, -0.907105)" fill="none" stroke-linejoin="round" d="M 142.990181 331.452772 L 177.218446 331.452772 " stroke="#000000" stroke-width="0.85" stroke-opacity="1" stroke-miterlimit="4"/><path stroke-linecap="round" transform="matrix(0, 0.671845, -0.671831, 0, 564.578745, -0.907105)" fill="none" stroke-linejoin="round" d="M 177.218446 649.816558 L 177.218446 190.542419 " stroke="#000000" stroke-width="0.85" stroke-opacity="1" stroke-miterlimit="4"/><path stroke-linecap="round" transform="matrix(0, 0.671845, -0.671831, 0, 564.578745, -0.907105)" fill="none" stroke-linejoin="round" d="M 142.990181 190.542419 L 142.990181 649.816558 " stroke="#000000" stroke-width="0.85" stroke-opacity="1" stroke-miterlimit="4"/><path stroke-linecap="round" transform="matrix(0, 0.671845, -0.671831, 0, 564.578745, -0.907105)" fill="none" stroke-linejoin="round" d="M 231.819708 555.316209 L 209.138468 555.316209 " stroke="#000000" stroke-width="0.85" stroke-opacity="1" stroke-miterlimit="4"/><path stroke-linecap="round" transform="matrix(0, 0.671845, -0.671831, 0, 564.578745, -0.907105)" fill="none" stroke-linejoin="round" d="M 209.138468 556.996551 L 231.819708 556.996551 " stroke="#000000" stroke-width="0.85" stroke-opacity="1" stroke-miterlimit="4"/><path stroke-linecap="round" transform="matrix(0, 0.671845, -0.671831, 0, 564.578745, -0.907105)" fill="none" stroke-linejoin="round" d="M 111.070159 601.726212 L 76.841895 601.726212 " stroke="#000000" stroke-width="0.85" stroke-opacity="1" stroke-miterlimit="4"/><path stroke-linecap="round" transform="matrix(0, 0.671845, -0.671831, 0, 564.578745, -0.907105)" fill="none" stroke-linejoin="round" d="M 76.841895 190.542419 L 76.841895 649.816558 " stroke="#000000" stroke-width="0.85" stroke-opacity="1" stroke-miterlimit="4"/><path stroke-linecap="round" transform="matrix(0, 0.671845, -0.671831, 0, 564.578745, -0.907105)" fill="none" stroke-linejoin="round" d="M 76.841895 603.406555 L 111.070159 603.406555 " stroke="#000000" stroke-width="0.85" stroke-opacity="1" stroke-miterlimit="4"/><path stroke-linecap="round" transform="matrix(0, 0.671845, -0.671831, 0, 564.578745, -0.907105)" fill="none" stroke-linejoin="round" d="M 111.070159 649.816558 L 111.070159 190.542419 " stroke="#000000" stroke-width="0.85" stroke-opacity="1" stroke-miterlimit="4"/><path stroke-linecap="round" transform="matrix(0, 0.671845, -0.671831, 0, 564.578745, -0.907105)" fill="none" stroke-linejoin="round" d="M 209.138468 238.632765 L 231.819708 238.632765 " stroke="#000000" stroke-width="0.85" stroke-opacity="1" stroke-miterlimit="4"/><path stroke-linecap="round" transform="matrix(0, 0.671845, -0.671831, 0, 564.578745, -0.907105)" fill="none" stroke-linejoin="round" d="M 231.819708 236.952423 L 209.138468 236.952423 " stroke="#000000" stroke-width="0.85" stroke-opacity="1" stroke-miterlimit="4"/><path stroke-linecap="round" transform="matrix(0, 0.671845, -0.671831, 0, 564.578745, -0.907105)" fill="none" stroke-linejoin="round" d="M 209.138468 192.222762 L 231.819708 192.222762 " stroke="#000000" stroke-width="0.85" stroke-opacity="1" stroke-miterlimit="4"/><path stroke-linecap="round" transform="matrix(0, 0.671845, -0.671831, 0, 564.578745, -0.907105)" fill="none" stroke-linejoin="round" d="M 231.819708 190.542419 L 209.138468 190.542419 " stroke="#000000" stroke-width="0.85" stroke-opacity="1" stroke-miterlimit="4"/><path stroke-linecap="round" transform="matrix(0, 0.671845, -0.671831, 0, 564.578745, -0.907105)" fill="none" stroke-linejoin="round" d="M 231.819708 608.127793 L 231.819708 190.542419 " stroke="#000000" stroke-width="0.85" stroke-opacity="1" stroke-miterlimit="4"/><path stroke-linecap="round" transform="matrix(0, 0.671845, -0.671831, 0, 564.578745, -0.907105)" fill="none" stroke-linejoin="round" d="M 209.138468 190.542419 L 209.138468 608.127793 " stroke="#000000" stroke-width="0.85" stroke-opacity="1" stroke-miterlimit="4"/><path stroke-linecap="round" transform="matrix(0, 0.671845, -0.671831, 0, 564.578745, -0.907105)" fill="none" stroke-linejoin="round" d="M 147.926447 649.816558 L 147.926447 556.996551 " stroke="#000000" stroke-width="0.85" stroke-opacity="1" stroke-miterlimit="4"/><path stroke-linecap="round" transform="matrix(0, 0.671845, -0.671831, 0, 564.578745, -0.907105)" fill="none" stroke-linejoin="round" d="M 172.28218 649.816558 L 172.28218 556.996551 " stroke="#000000" stroke-width="0.85" stroke-opacity="1" stroke-miterlimit="4"/><path stroke-linecap="round" transform="matrix(0, 0.671845, -0.671831, 0, 564.578745, -0.907105)" fill="none" stroke-linejoin="round" d="M 142.990181 649.816558 L 177.218446 649.816558 " stroke="#000000" stroke-width="0.85" stroke-opacity="1" stroke-miterlimit="4"/><path stroke-linecap="round" transform="matrix(0, 0.671845, -0.671831, 0, 564.578745, -0.907105)" fill="none" stroke-linejoin="round" d="M 209.138468 608.127793 L 231.819708 608.127793 " stroke="#000000" stroke-width="0.85" stroke-opacity="1" stroke-miterlimit="4"/><path stroke-linecap="round" transform="matrix(0, 0.671845, -0.671831, 0, 564.578745, -0.907105)" fill="none" stroke-linejoin="round" d="M 237.383909 616.529503 L 384.384623 616.529503 " stroke="#000000" stroke-width="0.85" stroke-opacity="1" stroke-miterlimit="4"/><path stroke-linecap="round" transform="matrix(0, 0.671845, -0.671831, 0, 564.578745, -0.907105)" fill="none" stroke-linejoin="round" d="M 237.383909 516.778812 L 237.383909 616.529503 " stroke="#000000" stroke-width="0.85" stroke-opacity="1" stroke-miterlimit="4"/><path stroke-linecap="round" transform="matrix(0, 0.671845, -0.671831, 0, 564.578745, -0.907105)" fill="none" stroke-linejoin="round" d="M 384.384623 616.529503 L 384.384623 516.778812 " stroke="#000000" stroke-width="0.85" stroke-opacity="1" stroke-miterlimit="4"/><path stroke-linecap="round" transform="matrix(0, 0.671845, -0.671831, 0, 564.578745, -0.907105)" fill="none" stroke-linejoin="round" d="M 384.384623 516.778812 L 237.383909 516.778812 " stroke="#000000" stroke-width="0.85" stroke-opacity="1" stroke-miterlimit="4"/><path stroke-linecap="round" transform="matrix(0, 0.671845, -0.671831, 0, 564.578745, -0.907105)" fill="none" stroke-linejoin="round" d="M 235.284978 187.077077 L 205.673198 187.077077 " stroke="#000000" stroke-width="0.85" stroke-opacity="1" stroke-miterlimit="4"/><path stroke-linecap="round" transform="matrix(0, 0.671845, -0.671831, 0, 564.578745, -0.907105)" fill="none" stroke-linejoin="round" d="M 235.284978 616.529503 L 235.284978 187.077077 " stroke="#000000" stroke-width="0.85" stroke-opacity="1" stroke-miterlimit="4"/><path stroke-linecap="round" transform="matrix(0, 0.671845, -0.671831, 0, 564.578745, -0.907105)" fill="none" stroke-linejoin="round" d="M 205.673198 616.529503 L 235.284978 616.529503 " stroke="#000000" stroke-width="0.85" stroke-opacity="1" stroke-miterlimit="4"/><path stroke-linecap="round" transform="matrix(0, 0.671845, -0.671831, 0, 564.578745, -0.907105)" fill="none" stroke-linejoin="round" d="M 205.673198 187.077077 L 205.673198 616.529503 " stroke="#000000" stroke-width="0.85" stroke-opacity="1" stroke-miterlimit="4"/><path stroke-linecap="round" transform="matrix(0, 0.671845, -0.671831, 0, 564.578745, -0.907105)" fill="none" stroke-linejoin="round" d="M 139.524911 653.276086 L 180.683716 653.276086 " stroke="#000000" stroke-width="0.85" stroke-opacity="1" stroke-miterlimit="4"/><path stroke-linecap="round" transform="matrix(0, 0.671845, -0.671831, 0, 564.578745, -0.907105)" fill="none" stroke-linejoin="round" d="M 139.524911 187.077077 L 139.524911 653.276086 " stroke="#000000" stroke-width="0.85" stroke-opacity="1" stroke-miterlimit="4"/><path stroke-linecap="round" transform="matrix(0, 0.671845, -0.671831, 0, 564.578745, -0.907105)" fill="none" stroke-linejoin="round" d="M 180.683716 653.276086 L 180.683716 187.077077 " stroke="#000000" stroke-width="0.85" stroke-opacity="1" stroke-miterlimit="4"/><path stroke-linecap="round" transform="matrix(0, 0.671845, -0.671831, 0, 564.578745, -0.907105)" fill="none" stroke-linejoin="round" d="M 180.683716 187.077077 L 139.524911 187.077077 " stroke="#000000" stroke-width="0.85" stroke-opacity="1" stroke-miterlimit="4"/><path stroke-linecap="round" transform="matrix(0, 0.671845, -0.671831, 0, 564.578745, -0.907105)" fill="none" stroke-linejoin="round" d="M 114.535429 653.276086 L 114.535429 187.077077 " stroke="#000000" stroke-width="0.85" stroke-opacity="1" stroke-miterlimit="4"/><path stroke-linecap="round" transform="matrix(0, 0.671845, -0.671831, 0, 564.578745, -0.907105)" fill="none" stroke-linejoin="round" d="M 73.376625 653.276086 L 114.535429 653.276086 " stroke="#000000" stroke-width="0.85" stroke-opacity="1" stroke-miterlimit="4"/><path stroke-linecap="round" transform="matrix(0, 0.671845, -0.671831, 0, 564.578745, -0.907105)" fill="none" stroke-linejoin="round" d="M 73.376625 187.077077 L 73.376625 653.276086 " stroke="#000000" stroke-width="0.85" stroke-opacity="1" stroke-miterlimit="4"/><path stroke-linecap="round" transform="matrix(0, 0.671845, -0.671831, 0, 564.578745, -0.907105)" fill="none" stroke-linejoin="round" d="M 114.535429 187.077077 L 73.376625 187.077077 " stroke="#000000" stroke-width="0.85" stroke-opacity="1" stroke-miterlimit="4"/></svg>