<svg viewBox="43.360362804878044 271.79026400000004 913.768719512195 456.86372" xml:space="preserve" version="1.1" xmlns:xlink="http://www.w3.org/1999/xlink" xmlns="http://www.w3.org/2000/svg" style="max-height: 500px" width="913.768719512195" height="456.86372">
<desc>Created with Fabric.js 3.5.0</desc>
<defs>
</defs>
<rect fill="#ffffff" height="100%" width="100%" y="0" x="0"/>
<g id="594171" transform="matrix(0 1.0812 -1.0812 0 499.982 500.009)">
<g style="">
		<g transform="matrix(1 0 0 1 -152.77 -244.676)">
<path stroke-linecap="round" d="M 0 177.209 L 114.45 177.209" transform="translate(-57.225, -177.209)" style="stroke: rgb(0,0,0); stroke-width: 0.8504; stroke-dasharray: none; stroke-linecap: round; stroke-dashoffset: 0; stroke-linejoin: round; stroke-miterlimit: 4; is-custom-font: none; font-file-url: none; fill: none; fill-rule: evenodd; opacity: 1;"/>
</g>
		<g transform="matrix(1 0 0 1 -95.545 -332.3356)">
<path stroke-linecap="round" d="M 114.45 177.209 L 114.45 1.88977" transform="translate(-114.45, -89.5494)" style="stroke: rgb(0,0,0); stroke-width: 0.8504; stroke-dasharray: none; stroke-linecap: round; stroke-dashoffset: 0; stroke-linejoin: round; stroke-miterlimit: 4; is-custom-font: none; font-file-url: none; fill: none; fill-rule: evenodd; opacity: 1;"/>
</g>
		<g transform="matrix(1 0 0 1 0.005 -419.9952)">
<path stroke-linecap="round" d="M 420 1.88977 L 0 1.88977" transform="translate(-210, -1.8898)" style="stroke: rgb(0,0,0); stroke-width: 0.8504; stroke-dasharray: none; stroke-linecap: round; stroke-dashoffset: 0; stroke-linejoin: round; stroke-miterlimit: 4; is-custom-font: none; font-file-url: none; fill: none; fill-rule: evenodd; opacity: 1;"/>
</g>
		<g transform="matrix(1 0 0 1 -28.363 282.424)">
<path stroke-linecap="round" d="M 181.632 702.209 L 181.632 706.409" transform="translate(-181.632, -704.309)" style="stroke: rgb(0,0,0); stroke-width: 0.8504; stroke-dasharray: none; stroke-linecap: round; stroke-dashoffset: 0; stroke-linejoin: round; stroke-miterlimit: 4; is-custom-font: none; font-file-url: none; fill: none; fill-rule: evenodd; opacity: 1;"/>
</g>
		<g transform="matrix(1 0 0 1 -41.033 284.524)">
<path stroke-linecap="round" d="M 181.632 706.409 L 156.292 706.409" transform="translate(-168.962, -706.409)" style="stroke: rgb(0,0,0); stroke-width: 0.8504; stroke-dasharray: none; stroke-linecap: round; stroke-dashoffset: 0; stroke-linejoin: round; stroke-miterlimit: 4; is-custom-font: none; font-file-url: none; fill: none; fill-rule: evenodd; opacity: 1;"/>
</g>
		<g transform="matrix(1 0 0 1 -53.703 307.624)">
<path stroke-linecap="round" d="M 156.292 706.409 L 156.292 752.609" transform="translate(-156.292, -729.509)" style="stroke: rgb(0,0,0); stroke-width: 0.8504; stroke-dasharray: none; stroke-linecap: round; stroke-dashoffset: 0; stroke-linejoin: round; stroke-miterlimit: 4; is-custom-font: none; font-file-url: none; fill: none; fill-rule: evenodd; opacity: 1;"/>
</g>
		<g transform="matrix(1 0 0 1 0.5695 370.859)">
<path stroke-linecap="round" d="M 181.632 792.744 L 239.497 792.744" transform="translate(-210.5645, -792.744)" style="stroke: rgb(0,0,0); stroke-width: 0.8504; stroke-dasharray: none; stroke-linecap: round; stroke-dashoffset: 0; stroke-linejoin: round; stroke-miterlimit: 4; is-custom-font: none; font-file-url: none; fill: none; fill-rule: evenodd; opacity: 1;"/>
</g>
		<g transform="matrix(1 0 0 1 29.502 350.2305)">
<path stroke-linecap="round" d="M 239.497 792.744 L 239.497 751.487" transform="translate(-239.497, -772.1155)" style="stroke: rgb(0,0,0); stroke-width: 0.8504; stroke-dasharray: none; stroke-linecap: round; stroke-dashoffset: 0; stroke-linejoin: round; stroke-miterlimit: 4; is-custom-font: none; font-file-url: none; fill: none; fill-rule: evenodd; opacity: 1;"/>
</g>
		<g transform="matrix(1 0 0 1 42.207 329.602)">
<path stroke-linecap="round" d="M 239.497 751.487 L 264.907 751.487" transform="translate(-252.202, -751.487)" style="stroke: rgb(0,0,0); stroke-width: 0.8504; stroke-dasharray: none; stroke-linecap: round; stroke-dashoffset: 0; stroke-linejoin: round; stroke-miterlimit: 4; is-custom-font: none; font-file-url: none; fill: none; fill-rule: evenodd; opacity: 1;"/>
</g>
		<g transform="matrix(1 0 0 1 42.207 284.524)">
<path stroke-linecap="round" d="M 264.907 706.409 L 239.497 706.409" transform="translate(-252.202, -706.409)" style="stroke: rgb(0,0,0); stroke-width: 0.8504; stroke-dasharray: none; stroke-linecap: round; stroke-dashoffset: 0; stroke-linejoin: round; stroke-miterlimit: 4; is-custom-font: none; font-file-url: none; fill: none; fill-rule: evenodd; opacity: 1;"/>
</g>
		<g transform="matrix(1 0 0 1 -119.179 280.324)">
<path stroke-linecap="round" d="M 0 702.209 L 181.632 702.209" transform="translate(-90.816, -702.209)" style="stroke: rgb(0,0,0); stroke-width: 0.8504; stroke-dasharray: none; stroke-linecap: round; stroke-dashoffset: 0; stroke-linejoin: round; stroke-miterlimit: 4; is-custom-font: none; font-file-url: none; fill: none; fill-rule: evenodd; opacity: 1;"/>
</g>
		<g transform="matrix(1 0 0 1 119.7535 280.324)">
<path stroke-linecap="round" d="M 239.497 702.209 L 420 702.209" transform="translate(-329.7485, -702.209)" style="stroke: rgb(0,0,0); stroke-width: 0.8504; stroke-dasharray: none; stroke-linecap: round; stroke-dashoffset: 0; stroke-linejoin: round; stroke-miterlimit: 4; is-custom-font: none; font-file-url: none; fill: none; fill-rule: evenodd; opacity: 1;"/>
</g>
		<g transform="matrix(1 0 0 1 54.912 307.063)">
<path stroke-linecap="round" d="M 264.907 751.487 L 264.907 706.409" transform="translate(-264.907, -728.948)" style="stroke: rgb(0,0,0); stroke-width: 0.8504; stroke-dasharray: none; stroke-linecap: round; stroke-dashoffset: 0; stroke-linejoin: round; stroke-miterlimit: 4; is-custom-font: none; font-file-url: none; fill: none; fill-rule: evenodd; opacity: 1;"/>
</g>
		<g transform="matrix(1 0 0 1 210.005 0.0049)">
<path stroke-linecap="round" d="M 420 841.89 L 420 1.88977" transform="translate(-420, -421.8899)" style="stroke: rgb(0,0,0); stroke-width: 0.8504; stroke-dasharray: none; stroke-linecap: round; stroke-dashoffset: 0; stroke-linejoin: round; stroke-miterlimit: 4; is-custom-font: none; font-file-url: none; fill: none; fill-rule: evenodd; opacity: 1;"/>
</g>
		<g transform="matrix(1 0 0 1 0.005 420.005)">
<path stroke-linecap="round" d="M 0 841.89 L 420 841.89" transform="translate(-210, -841.89)" style="stroke: rgb(0,0,0); stroke-width: 0.8504; stroke-dasharray: none; stroke-linecap: round; stroke-dashoffset: 0; stroke-linejoin: round; stroke-miterlimit: 4; is-custom-font: none; font-file-url: none; fill: none; fill-rule: evenodd; opacity: 1;"/>
</g>
		<g transform="matrix(1 0 0 1 29.502 282.424)">
<path stroke-linecap="round" d="M 239.497 706.409 L 239.497 702.209" transform="translate(-239.497, -704.309)" style="stroke: rgb(0,0,0); stroke-width: 0.8504; stroke-dasharray: none; stroke-linecap: round; stroke-dashoffset: 0; stroke-linejoin: round; stroke-miterlimit: 4; is-custom-font: none; font-file-url: none; fill: none; fill-rule: evenodd; opacity: 1;"/>
</g>
		<g transform="matrix(1 0 0 1 -41.033 330.724)">
<path stroke-linecap="round" d="M 156.292 752.609 L 181.632 752.609" transform="translate(-168.962, -752.609)" style="stroke: rgb(0,0,0); stroke-width: 0.8504; stroke-dasharray: none; stroke-linecap: round; stroke-dashoffset: 0; stroke-linejoin: round; stroke-miterlimit: 4; is-custom-font: none; font-file-url: none; fill: none; fill-rule: evenodd; opacity: 1;"/>
</g>
		<g transform="matrix(1 0 0 1 -28.363 350.7915)">
<path stroke-linecap="round" d="M 181.632 752.609 L 181.632 792.744" transform="translate(-181.632, -772.6765)" style="stroke: rgb(0,0,0); stroke-width: 0.8504; stroke-dasharray: none; stroke-linecap: round; stroke-dashoffset: 0; stroke-linejoin: round; stroke-miterlimit: 4; is-custom-font: none; font-file-url: none; fill: none; fill-rule: evenodd; opacity: 1;"/>
</g>
		<g transform="matrix(1 0 0 1 -209.995 0.0049)">
<path stroke-linecap="round" d="M 0 1.88977 L 0 841.89" transform="translate(0, -421.8899)" style="stroke: rgb(0,0,0); stroke-width: 0.8504; stroke-dasharray: none; stroke-linecap: round; stroke-dashoffset: 0; stroke-linejoin: round; stroke-miterlimit: 4; is-custom-font: none; font-file-url: none; fill: none; fill-rule: evenodd; opacity: 1;"/>
</g>
		<g transform="matrix(1 0 0 1 -49.89 47.119)">
<path stroke-linecap="round" d="M 177.22 469.004 L 142.99 469.004" transform="translate(-160.105, -469.004)" style="stroke: rgb(0,0,0); stroke-width: 0.8504; stroke-dasharray: none; stroke-linecap: round; stroke-dashoffset: 0; stroke-linejoin: round; stroke-miterlimit: 4; is-custom-font: none; font-file-url: none; fill: none; fill-rule: evenodd; opacity: 1;"/>
</g>
		<g transform="matrix(1 0 0 1 -49.89 48.799)">
<path stroke-linecap="round" d="M 142.99 470.684 L 177.22 470.684" transform="translate(-160.105, -470.684)" style="stroke: rgb(0,0,0); stroke-width: 0.8504; stroke-dasharray: none; stroke-linecap: round; stroke-dashoffset: 0; stroke-linejoin: round; stroke-miterlimit: 4; is-custom-font: none; font-file-url: none; fill: none; fill-rule: evenodd; opacity: 1;"/>
</g>
		<g transform="matrix(1 0 0 1 10.485 2.389)">
<path stroke-linecap="round" d="M 209.14 424.274 L 231.82 424.274" transform="translate(-220.48, -424.274)" style="stroke: rgb(0,0,0); stroke-width: 0.8504; stroke-dasharray: none; stroke-linecap: round; stroke-dashoffset: 0; stroke-linejoin: round; stroke-miterlimit: 4; is-custom-font: none; font-file-url: none; fill: none; fill-rule: evenodd; opacity: 1;"/>
</g>
		<g transform="matrix(1 0 0 1 10.485 0.709)">
<path stroke-linecap="round" d="M 231.82 422.594 L 209.14 422.594" transform="translate(-220.48, -422.594)" style="stroke: rgb(0,0,0); stroke-width: 0.8504; stroke-dasharray: none; stroke-linecap: round; stroke-dashoffset: 0; stroke-linejoin: round; stroke-miterlimit: 4; is-custom-font: none; font-file-url: none; fill: none; fill-rule: evenodd; opacity: 1;"/>
</g>
		<g transform="matrix(1 0 0 1 10.485 47.119)">
<path stroke-linecap="round" d="M 231.82 469.004 L 209.14 469.004" transform="translate(-220.48, -469.004)" style="stroke: rgb(0,0,0); stroke-width: 0.8504; stroke-dasharray: none; stroke-linecap: round; stroke-dashoffset: 0; stroke-linejoin: round; stroke-miterlimit: 4; is-custom-font: none; font-file-url: none; fill: none; fill-rule: evenodd; opacity: 1;"/>
</g>
		<g transform="matrix(1 0 0 1 10.485 48.799)">
<path stroke-linecap="round" d="M 209.14 470.684 L 231.82 470.684" transform="translate(-220.48, -470.684)" style="stroke: rgb(0,0,0); stroke-width: 0.8504; stroke-dasharray: none; stroke-linecap: round; stroke-dashoffset: 0; stroke-linejoin: round; stroke-miterlimit: 4; is-custom-font: none; font-file-url: none; fill: none; fill-rule: evenodd; opacity: 1;"/>
</g>
		<g transform="matrix(1 0 0 1 -49.89 0.709)">
<path stroke-linecap="round" d="M 177.22 422.594 L 142.99 422.594" transform="translate(-160.105, -422.594)" style="stroke: rgb(0,0,0); stroke-width: 0.8504; stroke-dasharray: none; stroke-linecap: round; stroke-dashoffset: 0; stroke-linejoin: round; stroke-miterlimit: 4; is-custom-font: none; font-file-url: none; fill: none; fill-rule: evenodd; opacity: 1;"/>
</g>
		<g transform="matrix(1 0 0 1 -49.89 2.389)">
<path stroke-linecap="round" d="M 142.99 424.274 L 177.22 424.274" transform="translate(-160.105, -424.274)" style="stroke: rgb(0,0,0); stroke-width: 0.8504; stroke-dasharray: none; stroke-linecap: round; stroke-dashoffset: 0; stroke-linejoin: round; stroke-miterlimit: 4; is-custom-font: none; font-file-url: none; fill: none; fill-rule: evenodd; opacity: 1;"/>
</g>
		<g transform="matrix(1 0 0 1 -49.89 133.429)">
<path stroke-linecap="round" d="M 177.22 555.314 L 142.99 555.314" transform="translate(-160.105, -555.314)" style="stroke: rgb(0,0,0); stroke-width: 0.8504; stroke-dasharray: none; stroke-linecap: round; stroke-dashoffset: 0; stroke-linejoin: round; stroke-miterlimit: 4; is-custom-font: none; font-file-url: none; fill: none; fill-rule: evenodd; opacity: 1;"/>
</g>
		<g transform="matrix(1 0 0 1 -49.89 135.109)">
<path stroke-linecap="round" d="M 142.99 556.994 L 177.22 556.994" transform="translate(-160.105, -556.994)" style="stroke: rgb(0,0,0); stroke-width: 0.8504; stroke-dasharray: none; stroke-linecap: round; stroke-dashoffset: 0; stroke-linejoin: round; stroke-miterlimit: 4; is-custom-font: none; font-file-url: none; fill: none; fill-rule: evenodd; opacity: 1;"/>
</g>
		<g transform="matrix(1 0 0 1 -49.89 -44.021)">
<path stroke-linecap="round" d="M 142.99 377.864 L 177.22 377.864" transform="translate(-160.105, -377.864)" style="stroke: rgb(0,0,0); stroke-width: 0.8504; stroke-dasharray: none; stroke-linecap: round; stroke-dashoffset: 0; stroke-linejoin: round; stroke-miterlimit: 4; is-custom-font: none; font-file-url: none; fill: none; fill-rule: evenodd; opacity: 1;"/>
</g>
		<g transform="matrix(1 0 0 1 -49.89 -45.701)">
<path stroke-linecap="round" d="M 177.22 376.184 L 142.99 376.184" transform="translate(-160.105, -376.184)" style="stroke: rgb(0,0,0); stroke-width: 0.8504; stroke-dasharray: none; stroke-linecap: round; stroke-dashoffset: 0; stroke-linejoin: round; stroke-miterlimit: 4; is-custom-font: none; font-file-url: none; fill: none; fill-rule: evenodd; opacity: 1;"/>
</g>
		<g transform="matrix(1 0 0 1 -49.89 -231.341)">
<path stroke-linecap="round" d="M 177.22 190.544 L 142.99 190.544" transform="translate(-160.105, -190.544)" style="stroke: rgb(0,0,0); stroke-width: 0.8504; stroke-dasharray: none; stroke-linecap: round; stroke-dashoffset: 0; stroke-linejoin: round; stroke-miterlimit: 4; is-custom-font: none; font-file-url: none; fill: none; fill-rule: evenodd; opacity: 1;"/>
</g>
		<g transform="matrix(1 0 0 1 -49.89 -229.661)">
<path stroke-linecap="round" d="M 142.99 192.224 L 177.22 192.224" transform="translate(-160.105, -192.224)" style="stroke: rgb(0,0,0); stroke-width: 0.8504; stroke-dasharray: none; stroke-linecap: round; stroke-dashoffset: 0; stroke-linejoin: round; stroke-miterlimit: 4; is-custom-font: none; font-file-url: none; fill: none; fill-rule: evenodd; opacity: 1;"/>
</g>
		<g transform="matrix(1 0 0 1 -116.0399 -231.341)">
<path stroke-linecap="round" d="M 111.07 190.544 L 76.8402 190.544" transform="translate(-93.9551, -190.544)" style="stroke: rgb(0,0,0); stroke-width: 0.8504; stroke-dasharray: none; stroke-linecap: round; stroke-dashoffset: 0; stroke-linejoin: round; stroke-miterlimit: 4; is-custom-font: none; font-file-url: none; fill: none; fill-rule: evenodd; opacity: 1;"/>
</g>
		<g transform="matrix(1 0 0 1 -116.0399 -229.661)">
<path stroke-linecap="round" d="M 76.8402 192.224 L 111.07 192.224" transform="translate(-93.9551, -192.224)" style="stroke: rgb(0,0,0); stroke-width: 0.8504; stroke-dasharray: none; stroke-linecap: round; stroke-dashoffset: 0; stroke-linejoin: round; stroke-miterlimit: 4; is-custom-font: none; font-file-url: none; fill: none; fill-rule: evenodd; opacity: 1;"/>
</g>
		<g transform="matrix(1 0 0 1 -116.0399 -138.521)">
<path stroke-linecap="round" d="M 111.07 283.364 L 76.8402 283.364" transform="translate(-93.9551, -283.364)" style="stroke: rgb(0,0,0); stroke-width: 0.8504; stroke-dasharray: none; stroke-linecap: round; stroke-dashoffset: 0; stroke-linejoin: round; stroke-miterlimit: 4; is-custom-font: none; font-file-url: none; fill: none; fill-rule: evenodd; opacity: 1;"/>
</g>
		<g transform="matrix(1 0 0 1 -116.0399 -136.841)">
<path stroke-linecap="round" d="M 76.8402 285.044 L 111.07 285.044" transform="translate(-93.9551, -285.044)" style="stroke: rgb(0,0,0); stroke-width: 0.8504; stroke-dasharray: none; stroke-linecap: round; stroke-dashoffset: 0; stroke-linejoin: round; stroke-miterlimit: 4; is-custom-font: none; font-file-url: none; fill: none; fill-rule: evenodd; opacity: 1;"/>
</g>
		<g transform="matrix(1 0 0 1 -116.0399 -92.111)">
<path stroke-linecap="round" d="M 111.07 329.774 L 76.8402 329.774" transform="translate(-93.9551, -329.774)" style="stroke: rgb(0,0,0); stroke-width: 0.8504; stroke-dasharray: none; stroke-linecap: round; stroke-dashoffset: 0; stroke-linejoin: round; stroke-miterlimit: 4; is-custom-font: none; font-file-url: none; fill: none; fill-rule: evenodd; opacity: 1;"/>
</g>
		<g transform="matrix(1 0 0 1 -116.0399 -90.431)">
<path stroke-linecap="round" d="M 76.8402 331.454 L 111.07 331.454" transform="translate(-93.9551, -331.454)" style="stroke: rgb(0,0,0); stroke-width: 0.8504; stroke-dasharray: none; stroke-linecap: round; stroke-dashoffset: 0; stroke-linejoin: round; stroke-miterlimit: 4; is-custom-font: none; font-file-url: none; fill: none; fill-rule: evenodd; opacity: 1;"/>
</g>
		<g transform="matrix(1 0 0 1 -116.0399 -45.701)">
<path stroke-linecap="round" d="M 111.07 376.184 L 76.8402 376.184" transform="translate(-93.9551, -376.184)" style="stroke: rgb(0,0,0); stroke-width: 0.8504; stroke-dasharray: none; stroke-linecap: round; stroke-dashoffset: 0; stroke-linejoin: round; stroke-miterlimit: 4; is-custom-font: none; font-file-url: none; fill: none; fill-rule: evenodd; opacity: 1;"/>
</g>
		<g transform="matrix(1 0 0 1 -116.0399 -44.021)">
<path stroke-linecap="round" d="M 76.8402 377.864 L 111.07 377.864" transform="translate(-93.9551, -377.864)" style="stroke: rgb(0,0,0); stroke-width: 0.8504; stroke-dasharray: none; stroke-linecap: round; stroke-dashoffset: 0; stroke-linejoin: round; stroke-miterlimit: 4; is-custom-font: none; font-file-url: none; fill: none; fill-rule: evenodd; opacity: 1;"/>
</g>
		<g transform="matrix(1 0 0 1 10.485 93.529)">
<path stroke-linecap="round" d="M 231.82 515.414 L 209.14 515.414" transform="translate(-220.48, -515.414)" style="stroke: rgb(0,0,0); stroke-width: 0.8504; stroke-dasharray: none; stroke-linecap: round; stroke-dashoffset: 0; stroke-linejoin: round; stroke-miterlimit: 4; is-custom-font: none; font-file-url: none; fill: none; fill-rule: evenodd; opacity: 1;"/>
</g>
		<g transform="matrix(1 0 0 1 10.485 95.209)">
<path stroke-linecap="round" d="M 209.14 517.094 L 231.82 517.094" transform="translate(-220.48, -517.094)" style="stroke: rgb(0,0,0); stroke-width: 0.8504; stroke-dasharray: none; stroke-linecap: round; stroke-dashoffset: 0; stroke-linejoin: round; stroke-miterlimit: 4; is-custom-font: none; font-file-url: none; fill: none; fill-rule: evenodd; opacity: 1;"/>
</g>
		<g transform="matrix(1 0 0 1 -49.89 93.529)">
<path stroke-linecap="round" d="M 177.22 515.414 L 142.99 515.414" transform="translate(-160.105, -515.414)" style="stroke: rgb(0,0,0); stroke-width: 0.8504; stroke-dasharray: none; stroke-linecap: round; stroke-dashoffset: 0; stroke-linejoin: round; stroke-miterlimit: 4; is-custom-font: none; font-file-url: none; fill: none; fill-rule: evenodd; opacity: 1;"/>
</g>
		<g transform="matrix(1 0 0 1 -49.89 95.209)">
<path stroke-linecap="round" d="M 142.99 517.094 L 177.22 517.094" transform="translate(-160.105, -517.094)" style="stroke: rgb(0,0,0); stroke-width: 0.8504; stroke-dasharray: none; stroke-linecap: round; stroke-dashoffset: 0; stroke-linejoin: round; stroke-miterlimit: 4; is-custom-font: none; font-file-url: none; fill: none; fill-rule: evenodd; opacity: 1;"/>
</g>
		<g transform="matrix(1 0 0 1 -116.0399 226.249)">
<path stroke-linecap="round" d="M 111.07 648.134 L 76.8402 648.134" transform="translate(-93.9551, -648.134)" style="stroke: rgb(0,0,0); stroke-width: 0.8504; stroke-dasharray: none; stroke-linecap: round; stroke-dashoffset: 0; stroke-linejoin: round; stroke-miterlimit: 4; is-custom-font: none; font-file-url: none; fill: none; fill-rule: evenodd; opacity: 1;"/>
</g>
		<g transform="matrix(1 0 0 1 -116.0399 227.929)">
<path stroke-linecap="round" d="M 76.8402 649.814 L 111.07 649.814" transform="translate(-93.9551, -649.814)" style="stroke: rgb(0,0,0); stroke-width: 0.8504; stroke-dasharray: none; stroke-linecap: round; stroke-dashoffset: 0; stroke-linejoin: round; stroke-miterlimit: 4; is-custom-font: none; font-file-url: none; fill: none; fill-rule: evenodd; opacity: 1;"/>
</g>
		<g transform="matrix(1 0 0 1 -116.0399 0.709)">
<path stroke-linecap="round" d="M 111.07 422.594 L 76.8402 422.594" transform="translate(-93.9551, -422.594)" style="stroke: rgb(0,0,0); stroke-width: 0.8504; stroke-dasharray: none; stroke-linecap: round; stroke-dashoffset: 0; stroke-linejoin: round; stroke-miterlimit: 4; is-custom-font: none; font-file-url: none; fill: none; fill-rule: evenodd; opacity: 1;"/>
</g>
		<g transform="matrix(1 0 0 1 -116.0399 2.389)">
<path stroke-linecap="round" d="M 76.8402 424.274 L 111.07 424.274" transform="translate(-93.9551, -424.274)" style="stroke: rgb(0,0,0); stroke-width: 0.8504; stroke-dasharray: none; stroke-linecap: round; stroke-dashoffset: 0; stroke-linejoin: round; stroke-miterlimit: 4; is-custom-font: none; font-file-url: none; fill: none; fill-rule: evenodd; opacity: 1;"/>
</g>
		<g transform="matrix(1 0 0 1 -116.0399 48.799)">
<path stroke-linecap="round" d="M 76.8402 470.684 L 111.07 470.684" transform="translate(-93.9551, -470.684)" style="stroke: rgb(0,0,0); stroke-width: 0.8504; stroke-dasharray: none; stroke-linecap: round; stroke-dashoffset: 0; stroke-linejoin: round; stroke-miterlimit: 4; is-custom-font: none; font-file-url: none; fill: none; fill-rule: evenodd; opacity: 1;"/>
</g>
		<g transform="matrix(1 0 0 1 -116.0399 47.119)">
<path stroke-linecap="round" d="M 111.07 469.004 L 76.8402 469.004" transform="translate(-93.9551, -469.004)" style="stroke: rgb(0,0,0); stroke-width: 0.8504; stroke-dasharray: none; stroke-linecap: round; stroke-dashoffset: 0; stroke-linejoin: round; stroke-miterlimit: 4; is-custom-font: none; font-file-url: none; fill: none; fill-rule: evenodd; opacity: 1;"/>
</g>
		<g transform="matrix(1 0 0 1 -116.0399 -183.251)">
<path stroke-linecap="round" d="M 76.8402 238.634 L 111.07 238.634" transform="translate(-93.9551, -238.634)" style="stroke: rgb(0,0,0); stroke-width: 0.8504; stroke-dasharray: none; stroke-linecap: round; stroke-dashoffset: 0; stroke-linejoin: round; stroke-miterlimit: 4; is-custom-font: none; font-file-url: none; fill: none; fill-rule: evenodd; opacity: 1;"/>
</g>
		<g transform="matrix(1 0 0 1 -116.0399 -184.931)">
<path stroke-linecap="round" d="M 111.07 236.954 L 76.8402 236.954" transform="translate(-93.9551, -236.954)" style="stroke: rgb(0,0,0); stroke-width: 0.8504; stroke-dasharray: none; stroke-linecap: round; stroke-dashoffset: 0; stroke-linejoin: round; stroke-miterlimit: 4; is-custom-font: none; font-file-url: none; fill: none; fill-rule: evenodd; opacity: 1;"/>
</g>
		<g transform="matrix(1 0 0 1 10.485 -92.111)">
<path stroke-linecap="round" d="M 231.82 329.774 L 209.14 329.774" transform="translate(-220.48, -329.774)" style="stroke: rgb(0,0,0); stroke-width: 0.8504; stroke-dasharray: none; stroke-linecap: round; stroke-dashoffset: 0; stroke-linejoin: round; stroke-miterlimit: 4; is-custom-font: none; font-file-url: none; fill: none; fill-rule: evenodd; opacity: 1;"/>
</g>
		<g transform="matrix(1 0 0 1 10.485 -90.431)">
<path stroke-linecap="round" d="M 209.14 331.454 L 231.82 331.454" transform="translate(-220.48, -331.454)" style="stroke: rgb(0,0,0); stroke-width: 0.8504; stroke-dasharray: none; stroke-linecap: round; stroke-dashoffset: 0; stroke-linejoin: round; stroke-miterlimit: 4; is-custom-font: none; font-file-url: none; fill: none; fill-rule: evenodd; opacity: 1;"/>
</g>
		<g transform="matrix(1 0 0 1 10.485 -45.701)">
<path stroke-linecap="round" d="M 231.82 376.184 L 209.14 376.184" transform="translate(-220.48, -376.184)" style="stroke: rgb(0,0,0); stroke-width: 0.8504; stroke-dasharray: none; stroke-linecap: round; stroke-dashoffset: 0; stroke-linejoin: round; stroke-miterlimit: 4; is-custom-font: none; font-file-url: none; fill: none; fill-rule: evenodd; opacity: 1;"/>
</g>
		<g transform="matrix(1 0 0 1 10.485 -44.021)">
<path stroke-linecap="round" d="M 209.14 377.864 L 231.82 377.864" transform="translate(-220.48, -377.864)" style="stroke: rgb(0,0,0); stroke-width: 0.8504; stroke-dasharray: none; stroke-linecap: round; stroke-dashoffset: 0; stroke-linejoin: round; stroke-miterlimit: 4; is-custom-font: none; font-file-url: none; fill: none; fill-rule: evenodd; opacity: 1;"/>
</g>
		<g transform="matrix(1 0 0 1 -116.0399 93.529)">
<path stroke-linecap="round" d="M 111.07 515.414 L 76.8402 515.414" transform="translate(-93.9551, -515.414)" style="stroke: rgb(0,0,0); stroke-width: 0.8504; stroke-dasharray: none; stroke-linecap: round; stroke-dashoffset: 0; stroke-linejoin: round; stroke-miterlimit: 4; is-custom-font: none; font-file-url: none; fill: none; fill-rule: evenodd; opacity: 1;"/>
</g>
		<g transform="matrix(1 0 0 1 -116.0399 95.209)">
<path stroke-linecap="round" d="M 76.8402 517.094 L 111.07 517.094" transform="translate(-93.9551, -517.094)" style="stroke: rgb(0,0,0); stroke-width: 0.8504; stroke-dasharray: none; stroke-linecap: round; stroke-dashoffset: 0; stroke-linejoin: round; stroke-miterlimit: 4; is-custom-font: none; font-file-url: none; fill: none; fill-rule: evenodd; opacity: 1;"/>
</g>
		<g transform="matrix(1 0 0 1 -49.89 -184.931)">
<path stroke-linecap="round" d="M 177.22 236.954 L 142.99 236.954" transform="translate(-160.105, -236.954)" style="stroke: rgb(0,0,0); stroke-width: 0.8504; stroke-dasharray: none; stroke-linecap: round; stroke-dashoffset: 0; stroke-linejoin: round; stroke-miterlimit: 4; is-custom-font: none; font-file-url: none; fill: none; fill-rule: evenodd; opacity: 1;"/>
</g>
		<g transform="matrix(1 0 0 1 -49.89 -183.251)">
<path stroke-linecap="round" d="M 142.99 238.634 L 177.22 238.634" transform="translate(-160.105, -238.634)" style="stroke: rgb(0,0,0); stroke-width: 0.8504; stroke-dasharray: none; stroke-linecap: round; stroke-dashoffset: 0; stroke-linejoin: round; stroke-miterlimit: 4; is-custom-font: none; font-file-url: none; fill: none; fill-rule: evenodd; opacity: 1;"/>
</g>
		<g transform="matrix(1 0 0 1 -116.0399 135.109)">
<path stroke-linecap="round" d="M 76.8402 556.994 L 111.07 556.994" transform="translate(-93.9551, -556.994)" style="stroke: rgb(0,0,0); stroke-width: 0.8504; stroke-dasharray: none; stroke-linecap: round; stroke-dashoffset: 0; stroke-linejoin: round; stroke-miterlimit: 4; is-custom-font: none; font-file-url: none; fill: none; fill-rule: evenodd; opacity: 1;"/>
</g>
		<g transform="matrix(1 0 0 1 -116.0399 133.429)">
<path stroke-linecap="round" d="M 111.07 555.314 L 76.8402 555.314" transform="translate(-93.9551, -555.314)" style="stroke: rgb(0,0,0); stroke-width: 0.8504; stroke-dasharray: none; stroke-linecap: round; stroke-dashoffset: 0; stroke-linejoin: round; stroke-miterlimit: 4; is-custom-font: none; font-file-url: none; fill: none; fill-rule: evenodd; opacity: 1;"/>
</g>
		<g transform="matrix(1 0 0 1 -49.89 -138.521)">
<path stroke-linecap="round" d="M 177.22 283.364 L 142.99 283.364" transform="translate(-160.105, -283.364)" style="stroke: rgb(0,0,0); stroke-width: 0.8504; stroke-dasharray: none; stroke-linecap: round; stroke-dashoffset: 0; stroke-linejoin: round; stroke-miterlimit: 4; is-custom-font: none; font-file-url: none; fill: none; fill-rule: evenodd; opacity: 1;"/>
</g>
		<g transform="matrix(1 0 0 1 -49.89 -136.841)">
<path stroke-linecap="round" d="M 142.99 285.044 L 177.22 285.044" transform="translate(-160.105, -285.044)" style="stroke: rgb(0,0,0); stroke-width: 0.8504; stroke-dasharray: none; stroke-linecap: round; stroke-dashoffset: 0; stroke-linejoin: round; stroke-miterlimit: 4; is-custom-font: none; font-file-url: none; fill: none; fill-rule: evenodd; opacity: 1;"/>
</g>
		<g transform="matrix(1 0 0 1 10.485 -138.521)">
<path stroke-linecap="round" d="M 231.82 283.364 L 209.14 283.364" transform="translate(-220.48, -283.364)" style="stroke: rgb(0,0,0); stroke-width: 0.8504; stroke-dasharray: none; stroke-linecap: round; stroke-dashoffset: 0; stroke-linejoin: round; stroke-miterlimit: 4; is-custom-font: none; font-file-url: none; fill: none; fill-rule: evenodd; opacity: 1;"/>
</g>
		<g transform="matrix(1 0 0 1 10.485 -136.841)">
<path stroke-linecap="round" d="M 209.14 285.044 L 231.82 285.044" transform="translate(-220.48, -285.044)" style="stroke: rgb(0,0,0); stroke-width: 0.8504; stroke-dasharray: none; stroke-linecap: round; stroke-dashoffset: 0; stroke-linejoin: round; stroke-miterlimit: 4; is-custom-font: none; font-file-url: none; fill: none; fill-rule: evenodd; opacity: 1;"/>
</g>
		<g transform="matrix(1 0 0 1 -49.89 -92.111)">
<path stroke-linecap="round" d="M 177.22 329.774 L 142.99 329.774" transform="translate(-160.105, -329.774)" style="stroke: rgb(0,0,0); stroke-width: 0.8504; stroke-dasharray: none; stroke-linecap: round; stroke-dashoffset: 0; stroke-linejoin: round; stroke-miterlimit: 4; is-custom-font: none; font-file-url: none; fill: none; fill-rule: evenodd; opacity: 1;"/>
</g>
		<g transform="matrix(1 0 0 1 -49.89 -90.431)">
<path stroke-linecap="round" d="M 142.99 331.454 L 177.22 331.454" transform="translate(-160.105, -331.454)" style="stroke: rgb(0,0,0); stroke-width: 0.8504; stroke-dasharray: none; stroke-linecap: round; stroke-dashoffset: 0; stroke-linejoin: round; stroke-miterlimit: 4; is-custom-font: none; font-file-url: none; fill: none; fill-rule: evenodd; opacity: 1;"/>
</g>
		<g transform="matrix(1 0 0 1 -32.775 -1.706)">
<path stroke-linecap="round" d="M 177.22 649.814 L 177.22 190.544" transform="translate(-177.22, -420.179)" style="stroke: rgb(0,0,0); stroke-width: 0.8504; stroke-dasharray: none; stroke-linecap: round; stroke-dashoffset: 0; stroke-linejoin: round; stroke-miterlimit: 4; is-custom-font: none; font-file-url: none; fill: none; fill-rule: evenodd; opacity: 1;"/>
</g>
		<g transform="matrix(1 0 0 1 -67.005 -1.706)">
<path stroke-linecap="round" d="M 142.99 190.544 L 142.99 649.814" transform="translate(-142.99, -420.179)" style="stroke: rgb(0,0,0); stroke-width: 0.8504; stroke-dasharray: none; stroke-linecap: round; stroke-dashoffset: 0; stroke-linejoin: round; stroke-miterlimit: 4; is-custom-font: none; font-file-url: none; fill: none; fill-rule: evenodd; opacity: 1;"/>
</g>
		<g transform="matrix(1 0 0 1 10.485 133.429)">
<path stroke-linecap="round" d="M 231.82 555.314 L 209.14 555.314" transform="translate(-220.48, -555.314)" style="stroke: rgb(0,0,0); stroke-width: 0.8504; stroke-dasharray: none; stroke-linecap: round; stroke-dashoffset: 0; stroke-linejoin: round; stroke-miterlimit: 4; is-custom-font: none; font-file-url: none; fill: none; fill-rule: evenodd; opacity: 1;"/>
</g>
		<g transform="matrix(1 0 0 1 10.485 135.109)">
<path stroke-linecap="round" d="M 209.14 556.994 L 231.82 556.994" transform="translate(-220.48, -556.994)" style="stroke: rgb(0,0,0); stroke-width: 0.8504; stroke-dasharray: none; stroke-linecap: round; stroke-dashoffset: 0; stroke-linejoin: round; stroke-miterlimit: 4; is-custom-font: none; font-file-url: none; fill: none; fill-rule: evenodd; opacity: 1;"/>
</g>
		<g transform="matrix(1 0 0 1 -116.0399 179.839)">
<path stroke-linecap="round" d="M 111.07 601.724 L 76.8402 601.724" transform="translate(-93.9551, -601.724)" style="stroke: rgb(0,0,0); stroke-width: 0.8504; stroke-dasharray: none; stroke-linecap: round; stroke-dashoffset: 0; stroke-linejoin: round; stroke-miterlimit: 4; is-custom-font: none; font-file-url: none; fill: none; fill-rule: evenodd; opacity: 1;"/>
</g>
		<g transform="matrix(1 0 0 1 -133.1548 -1.706)">
<path stroke-linecap="round" d="M 76.8402 190.544 L 76.8402 649.814" transform="translate(-76.8402, -420.179)" style="stroke: rgb(0,0,0); stroke-width: 0.8504; stroke-dasharray: none; stroke-linecap: round; stroke-dashoffset: 0; stroke-linejoin: round; stroke-miterlimit: 4; is-custom-font: none; font-file-url: none; fill: none; fill-rule: evenodd; opacity: 1;"/>
</g>
		<g transform="matrix(1 0 0 1 -116.0399 181.519)">
<path stroke-linecap="round" d="M 76.8402 603.404 L 111.07 603.404" transform="translate(-93.9551, -603.404)" style="stroke: rgb(0,0,0); stroke-width: 0.8504; stroke-dasharray: none; stroke-linecap: round; stroke-dashoffset: 0; stroke-linejoin: round; stroke-miterlimit: 4; is-custom-font: none; font-file-url: none; fill: none; fill-rule: evenodd; opacity: 1;"/>
</g>
		<g transform="matrix(1 0 0 1 -98.925 -1.706)">
<path stroke-linecap="round" d="M 111.07 649.814 L 111.07 190.544" transform="translate(-111.07, -420.179)" style="stroke: rgb(0,0,0); stroke-width: 0.8504; stroke-dasharray: none; stroke-linecap: round; stroke-dashoffset: 0; stroke-linejoin: round; stroke-miterlimit: 4; is-custom-font: none; font-file-url: none; fill: none; fill-rule: evenodd; opacity: 1;"/>
</g>
		<g transform="matrix(1 0 0 1 10.485 -183.251)">
<path stroke-linecap="round" d="M 209.14 238.634 L 231.82 238.634" transform="translate(-220.48, -238.634)" style="stroke: rgb(0,0,0); stroke-width: 0.8504; stroke-dasharray: none; stroke-linecap: round; stroke-dashoffset: 0; stroke-linejoin: round; stroke-miterlimit: 4; is-custom-font: none; font-file-url: none; fill: none; fill-rule: evenodd; opacity: 1;"/>
</g>
		<g transform="matrix(1 0 0 1 10.485 -184.931)">
<path stroke-linecap="round" d="M 231.82 236.954 L 209.14 236.954" transform="translate(-220.48, -236.954)" style="stroke: rgb(0,0,0); stroke-width: 0.8504; stroke-dasharray: none; stroke-linecap: round; stroke-dashoffset: 0; stroke-linejoin: round; stroke-miterlimit: 4; is-custom-font: none; font-file-url: none; fill: none; fill-rule: evenodd; opacity: 1;"/>
</g>
		<g transform="matrix(1 0 0 1 10.485 -229.661)">
<path stroke-linecap="round" d="M 209.14 192.224 L 231.82 192.224" transform="translate(-220.48, -192.224)" style="stroke: rgb(0,0,0); stroke-width: 0.8504; stroke-dasharray: none; stroke-linecap: round; stroke-dashoffset: 0; stroke-linejoin: round; stroke-miterlimit: 4; is-custom-font: none; font-file-url: none; fill: none; fill-rule: evenodd; opacity: 1;"/>
</g>
		<g transform="matrix(1 0 0 1 10.485 -231.341)">
<path stroke-linecap="round" d="M 231.82 190.544 L 209.14 190.544" transform="translate(-220.48, -190.544)" style="stroke: rgb(0,0,0); stroke-width: 0.8504; stroke-dasharray: none; stroke-linecap: round; stroke-dashoffset: 0; stroke-linejoin: round; stroke-miterlimit: 4; is-custom-font: none; font-file-url: none; fill: none; fill-rule: evenodd; opacity: 1;"/>
</g>
		<g transform="matrix(1 0 0 1 21.825 -22.5485)">
<path stroke-linecap="round" d="M 231.82 608.129 L 231.82 190.544" transform="translate(-231.82, -399.3365)" style="stroke: rgb(0,0,0); stroke-width: 0.8504; stroke-dasharray: none; stroke-linecap: round; stroke-dashoffset: 0; stroke-linejoin: round; stroke-miterlimit: 4; is-custom-font: none; font-file-url: none; fill: none; fill-rule: evenodd; opacity: 1;"/>
</g>
		<g transform="matrix(1 0 0 1 -0.855 -22.5485)">
<path stroke-linecap="round" d="M 209.14 190.544 L 209.14 608.129" transform="translate(-209.14, -399.3365)" style="stroke: rgb(0,0,0); stroke-width: 0.8504; stroke-dasharray: none; stroke-linecap: round; stroke-dashoffset: 0; stroke-linejoin: round; stroke-miterlimit: 4; is-custom-font: none; font-file-url: none; fill: none; fill-rule: evenodd; opacity: 1;"/>
</g>
		<g transform="matrix(1 0 0 1 -62.07 181.519)">
<path stroke-linecap="round" d="M 147.925 649.814 L 147.925 556.994" transform="translate(-147.925, -603.404)" style="stroke: rgb(0,0,0); stroke-width: 0.8504; stroke-dasharray: none; stroke-linecap: round; stroke-dashoffset: 0; stroke-linejoin: round; stroke-miterlimit: 4; is-custom-font: none; font-file-url: none; fill: none; fill-rule: evenodd; opacity: 1;"/>
</g>
		<g transform="matrix(1 0 0 1 -37.71 181.519)">
<path stroke-linecap="round" d="M 172.285 649.814 L 172.285 556.994" transform="translate(-172.285, -603.404)" style="stroke: rgb(0,0,0); stroke-width: 0.8504; stroke-dasharray: none; stroke-linecap: round; stroke-dashoffset: 0; stroke-linejoin: round; stroke-miterlimit: 4; is-custom-font: none; font-file-url: none; fill: none; fill-rule: evenodd; opacity: 1;"/>
</g>
		<g transform="matrix(1 0 0 1 -49.89 227.929)">
<path stroke-linecap="round" d="M 142.99 649.814 L 177.22 649.814" transform="translate(-160.105, -649.814)" style="stroke: rgb(0,0,0); stroke-width: 0.8504; stroke-dasharray: none; stroke-linecap: round; stroke-dashoffset: 0; stroke-linejoin: round; stroke-miterlimit: 4; is-custom-font: none; font-file-url: none; fill: none; fill-rule: evenodd; opacity: 1;"/>
</g>
		<g transform="matrix(1 0 0 1 10.485 186.244)">
<path stroke-linecap="round" d="M 209.14 608.129 L 231.82 608.129" transform="translate(-220.48, -608.129)" style="stroke: rgb(0,0,0); stroke-width: 0.8504; stroke-dasharray: none; stroke-linecap: round; stroke-dashoffset: 0; stroke-linejoin: round; stroke-miterlimit: 4; is-custom-font: none; font-file-url: none; fill: none; fill-rule: evenodd; opacity: 1;"/>
</g>
		<g transform="matrix(1 0 0 1 100.89 194.644)">
<path stroke-linecap="round" d="M 237.385 616.529 L 384.385 616.529" transform="translate(-310.885, -616.529)" style="stroke: rgb(0,0,0); stroke-width: 0.8504; stroke-dasharray: none; stroke-linecap: round; stroke-dashoffset: 0; stroke-linejoin: round; stroke-miterlimit: 4; is-custom-font: none; font-file-url: none; fill: none; fill-rule: evenodd; opacity: 1;"/>
</g>
		<g transform="matrix(1 0 0 1 27.39 144.769)">
<path stroke-linecap="round" d="M 237.385 516.779 L 237.385 616.529" transform="translate(-237.385, -566.654)" style="stroke: rgb(0,0,0); stroke-width: 0.8504; stroke-dasharray: none; stroke-linecap: round; stroke-dashoffset: 0; stroke-linejoin: round; stroke-miterlimit: 4; is-custom-font: none; font-file-url: none; fill: none; fill-rule: evenodd; opacity: 1;"/>
</g>
		<g transform="matrix(1 0 0 1 174.39 144.769)">
<path stroke-linecap="round" d="M 384.385 616.529 L 384.385 516.779" transform="translate(-384.385, -566.654)" style="stroke: rgb(0,0,0); stroke-width: 0.8504; stroke-dasharray: none; stroke-linecap: round; stroke-dashoffset: 0; stroke-linejoin: round; stroke-miterlimit: 4; is-custom-font: none; font-file-url: none; fill: none; fill-rule: evenodd; opacity: 1;"/>
</g>
		<g transform="matrix(1 0 0 1 100.89 94.894)">
<path stroke-linecap="round" d="M 384.385 516.779 L 237.385 516.779" transform="translate(-310.885, -516.779)" style="stroke: rgb(0,0,0); stroke-width: 0.8504; stroke-dasharray: none; stroke-linecap: round; stroke-dashoffset: 0; stroke-linejoin: round; stroke-miterlimit: 4; is-custom-font: none; font-file-url: none; fill: none; fill-rule: evenodd; opacity: 1;"/>
</g>
		<g transform="matrix(1 0 0 1 10.485 -234.806)">
<path stroke-linecap="round" d="M 235.285 187.079 L 205.675 187.079" transform="translate(-220.48, -187.079)" style="stroke: rgb(0,0,0); stroke-width: 0.8504; stroke-dasharray: none; stroke-linecap: round; stroke-dashoffset: 0; stroke-linejoin: round; stroke-miterlimit: 4; is-custom-font: none; font-file-url: none; fill: none; fill-rule: evenodd; opacity: 1;"/>
</g>
		<g transform="matrix(1 0 0 1 25.29 -20.081)">
<path stroke-linecap="round" d="M 235.285 616.529 L 235.285 187.079" transform="translate(-235.285, -401.804)" style="stroke: rgb(0,0,0); stroke-width: 0.8504; stroke-dasharray: none; stroke-linecap: round; stroke-dashoffset: 0; stroke-linejoin: round; stroke-miterlimit: 4; is-custom-font: none; font-file-url: none; fill: none; fill-rule: evenodd; opacity: 1;"/>
</g>
		<g transform="matrix(1 0 0 1 10.485 194.644)">
<path stroke-linecap="round" d="M 205.675 616.529 L 235.285 616.529" transform="translate(-220.48, -616.529)" style="stroke: rgb(0,0,0); stroke-width: 0.8504; stroke-dasharray: none; stroke-linecap: round; stroke-dashoffset: 0; stroke-linejoin: round; stroke-miterlimit: 4; is-custom-font: none; font-file-url: none; fill: none; fill-rule: evenodd; opacity: 1;"/>
</g>
		<g transform="matrix(1 0 0 1 -4.32 -20.081)">
<path stroke-linecap="round" d="M 205.675 187.079 L 205.675 616.529" transform="translate(-205.675, -401.804)" style="stroke: rgb(0,0,0); stroke-width: 0.8504; stroke-dasharray: none; stroke-linecap: round; stroke-dashoffset: 0; stroke-linejoin: round; stroke-miterlimit: 4; is-custom-font: none; font-file-url: none; fill: none; fill-rule: evenodd; opacity: 1;"/>
</g>
		<g transform="matrix(1 0 0 1 -49.89 231.394)">
<path stroke-linecap="round" d="M 139.525 653.279 L 180.685 653.279" transform="translate(-160.105, -653.279)" style="stroke: rgb(0,0,0); stroke-width: 0.8504; stroke-dasharray: none; stroke-linecap: round; stroke-dashoffset: 0; stroke-linejoin: round; stroke-miterlimit: 4; is-custom-font: none; font-file-url: none; fill: none; fill-rule: evenodd; opacity: 1;"/>
</g>
		<g transform="matrix(1 0 0 1 -70.47 -1.706)">
<path stroke-linecap="round" d="M 139.525 187.079 L 139.525 653.279" transform="translate(-139.525, -420.179)" style="stroke: rgb(0,0,0); stroke-width: 0.8504; stroke-dasharray: none; stroke-linecap: round; stroke-dashoffset: 0; stroke-linejoin: round; stroke-miterlimit: 4; is-custom-font: none; font-file-url: none; fill: none; fill-rule: evenodd; opacity: 1;"/>
</g>
		<g transform="matrix(1 0 0 1 -29.31 -1.706)">
<path stroke-linecap="round" d="M 180.685 653.279 L 180.685 187.079" transform="translate(-180.685, -420.179)" style="stroke: rgb(0,0,0); stroke-width: 0.8504; stroke-dasharray: none; stroke-linecap: round; stroke-dashoffset: 0; stroke-linejoin: round; stroke-miterlimit: 4; is-custom-font: none; font-file-url: none; fill: none; fill-rule: evenodd; opacity: 1;"/>
</g>
		<g transform="matrix(1 0 0 1 -49.89 -234.806)">
<path stroke-linecap="round" d="M 180.685 187.079 L 139.525 187.079" transform="translate(-160.105, -187.079)" style="stroke: rgb(0,0,0); stroke-width: 0.8504; stroke-dasharray: none; stroke-linecap: round; stroke-dashoffset: 0; stroke-linejoin: round; stroke-miterlimit: 4; is-custom-font: none; font-file-url: none; fill: none; fill-rule: evenodd; opacity: 1;"/>
</g>
		<g transform="matrix(1 0 0 1 -95.46 -1.706)">
<path stroke-linecap="round" d="M 114.535 653.279 L 114.535 187.079" transform="translate(-114.535, -420.179)" style="stroke: rgb(0,0,0); stroke-width: 0.8504; stroke-dasharray: none; stroke-linecap: round; stroke-dashoffset: 0; stroke-linejoin: round; stroke-miterlimit: 4; is-custom-font: none; font-file-url: none; fill: none; fill-rule: evenodd; opacity: 1;"/>
</g>
		<g transform="matrix(1 0 0 1 -116.0399 231.394)">
<path stroke-linecap="round" d="M 73.3752 653.279 L 114.535 653.279" transform="translate(-93.9551, -653.279)" style="stroke: rgb(0,0,0); stroke-width: 0.8504; stroke-dasharray: none; stroke-linecap: round; stroke-dashoffset: 0; stroke-linejoin: round; stroke-miterlimit: 4; is-custom-font: none; font-file-url: none; fill: none; fill-rule: evenodd; opacity: 1;"/>
</g>
		<g transform="matrix(1 0 0 1 -136.6198 -1.706)">
<path stroke-linecap="round" d="M 73.3752 187.079 L 73.3752 653.279" transform="translate(-73.3752, -420.179)" style="stroke: rgb(0,0,0); stroke-width: 0.8504; stroke-dasharray: none; stroke-linecap: round; stroke-dashoffset: 0; stroke-linejoin: round; stroke-miterlimit: 4; is-custom-font: none; font-file-url: none; fill: none; fill-rule: evenodd; opacity: 1;"/>
</g>
		<g transform="matrix(1 0 0 1 -116.0399 -234.806)">
<path stroke-linecap="round" d="M 114.535 187.079 L 73.3752 187.079" transform="translate(-93.9551, -187.079)" style="stroke: rgb(0,0,0); stroke-width: 0.8504; stroke-dasharray: none; stroke-linecap: round; stroke-dashoffset: 0; stroke-linejoin: round; stroke-miterlimit: 4; is-custom-font: none; font-file-url: none; fill: none; fill-rule: evenodd; opacity: 1;"/>
</g>
</g>
</g>
</svg>