<svg xmlns="http://www.w3.org/2000/svg" xmlns:xlink="http://www.w3.org/1999/xlink" fill-rule="evenodd" viewBox="-0.43 1.46 420.85 840.85" transform="rotate(-270)">
<g>
<path style="stroke:#000000; stroke-width:0.850394; stroke-linejoin:round; stroke-linecap:round; fill:none" d="M 0 177.209L 114.45 177.209"></path>
<path style="stroke:#000000; stroke-width:0.850394; stroke-linejoin:round; stroke-linecap:round; fill:none" d="M 114.45 177.209L 114.45 1.88977"></path>
<path style="stroke:#000000; stroke-width:0.850394; stroke-linejoin:round; stroke-linecap:round; fill:none" d="M 420 1.88977L 0 1.88977"></path>
<path style="stroke:#000000; stroke-width:0.850394; stroke-linejoin:round; stroke-linecap:round; fill:none" d="M 181.632 702.209L 181.632 706.409"></path>
<path style="stroke:#000000; stroke-width:0.850394; stroke-linejoin:round; stroke-linecap:round; fill:none" d="M 181.632 706.409L 156.292 706.409"></path>
<path style="stroke:#000000; stroke-width:0.850394; stroke-linejoin:round; stroke-linecap:round; fill:none" d="M 156.292 706.409L 156.292 752.609"></path>
<path style="stroke:#000000; stroke-width:0.850394; stroke-linejoin:round; stroke-linecap:round; fill:none" d="M 181.632 792.744L 239.497 792.744"></path>
<path style="stroke:#000000; stroke-width:0.850394; stroke-linejoin:round; stroke-linecap:round; fill:none" d="M 239.497 792.744L 239.497 751.487"></path>
<path style="stroke:#000000; stroke-width:0.850394; stroke-linejoin:round; stroke-linecap:round; fill:none" d="M 239.497 751.487L 264.907 751.487"></path>
<path style="stroke:#000000; stroke-width:0.850394; stroke-linejoin:round; stroke-linecap:round; fill:none" d="M 264.907 706.409L 239.497 706.409"></path>
<path style="stroke:#000000; stroke-width:0.850394; stroke-linejoin:round; stroke-linecap:round; fill:none" d="M 0 702.209L 181.632 702.209"></path>
<path style="stroke:#000000; stroke-width:0.850394; stroke-linejoin:round; stroke-linecap:round; fill:none" d="M 239.497 702.209L 420 702.209"></path>
<path style="stroke:#000000; stroke-width:0.850394; stroke-linejoin:round; stroke-linecap:round; fill:none" d="M 264.907 751.487L 264.907 706.409"></path>
<path style="stroke:#000000; stroke-width:0.850394; stroke-linejoin:round; stroke-linecap:round; fill:none" d="M 420 841.89L 420 1.88977"></path>
<path style="stroke:#000000; stroke-width:0.850394; stroke-linejoin:round; stroke-linecap:round; fill:none" d="M 0 841.89L 420 841.89"></path>
<path style="stroke:#000000; stroke-width:0.850394; stroke-linejoin:round; stroke-linecap:round; fill:none" d="M 239.497 706.409L 239.497 702.209"></path>
<path style="stroke:#000000; stroke-width:0.850394; stroke-linejoin:round; stroke-linecap:round; fill:none" d="M 156.292 752.609L 181.632 752.609"></path>
<path style="stroke:#000000; stroke-width:0.850394; stroke-linejoin:round; stroke-linecap:round; fill:none" d="M 181.632 752.609L 181.632 792.744"></path>
<path style="stroke:#000000; stroke-width:0.850394; stroke-linejoin:round; stroke-linecap:round; fill:none" d="M 0 1.88977L 0 841.89"></path>
<path style="stroke:#000000; stroke-width:0.850394; stroke-linejoin:round; stroke-linecap:round; fill:none" d="M 177.22 469.004L 142.99 469.004"></path>
<path style="stroke:#000000; stroke-width:0.850394; stroke-linejoin:round; stroke-linecap:round; fill:none" d="M 142.99 470.684L 177.22 470.684"></path>
<path style="stroke:#000000; stroke-width:0.850394; stroke-linejoin:round; stroke-linecap:round; fill:none" d="M 209.14 424.274L 231.82 424.274"></path>
<path style="stroke:#000000; stroke-width:0.850394; stroke-linejoin:round; stroke-linecap:round; fill:none" d="M 231.82 422.594L 209.14 422.594"></path>
<path style="stroke:#000000; stroke-width:0.850394; stroke-linejoin:round; stroke-linecap:round; fill:none" d="M 231.82 469.004L 209.14 469.004"></path>
<path style="stroke:#000000; stroke-width:0.850394; stroke-linejoin:round; stroke-linecap:round; fill:none" d="M 209.14 470.684L 231.82 470.684"></path>
<path style="stroke:#000000; stroke-width:0.850394; stroke-linejoin:round; stroke-linecap:round; fill:none" d="M 177.22 422.594L 142.99 422.594"></path>
<path style="stroke:#000000; stroke-width:0.850394; stroke-linejoin:round; stroke-linecap:round; fill:none" d="M 142.99 424.274L 177.22 424.274"></path>
<path style="stroke:#000000; stroke-width:0.850394; stroke-linejoin:round; stroke-linecap:round; fill:none" d="M 177.22 555.314L 142.99 555.314"></path>
<path style="stroke:#000000; stroke-width:0.850394; stroke-linejoin:round; stroke-linecap:round; fill:none" d="M 142.99 556.994L 177.22 556.994"></path>
<path style="stroke:#000000; stroke-width:0.850394; stroke-linejoin:round; stroke-linecap:round; fill:none" d="M 142.99 377.864L 177.22 377.864"></path>
<path style="stroke:#000000; stroke-width:0.850394; stroke-linejoin:round; stroke-linecap:round; fill:none" d="M 177.22 376.184L 142.99 376.184"></path>
<path style="stroke:#000000; stroke-width:0.850394; stroke-linejoin:round; stroke-linecap:round; fill:none" d="M 177.22 190.544L 142.99 190.544"></path>
<path style="stroke:#000000; stroke-width:0.850394; stroke-linejoin:round; stroke-linecap:round; fill:none" d="M 142.99 192.224L 177.22 192.224"></path>
<path style="stroke:#000000; stroke-width:0.850394; stroke-linejoin:round; stroke-linecap:round; fill:none" d="M 111.07 190.544L 76.8402 190.544"></path>
<path style="stroke:#000000; stroke-width:0.850394; stroke-linejoin:round; stroke-linecap:round; fill:none" d="M 76.8402 192.224L 111.07 192.224"></path>
<path style="stroke:#000000; stroke-width:0.850394; stroke-linejoin:round; stroke-linecap:round; fill:none" d="M 111.07 283.364L 76.8402 283.364"></path>
<path style="stroke:#000000; stroke-width:0.850394; stroke-linejoin:round; stroke-linecap:round; fill:none" d="M 76.8402 285.044L 111.07 285.044"></path>
<path style="stroke:#000000; stroke-width:0.850394; stroke-linejoin:round; stroke-linecap:round; fill:none" d="M 111.07 329.774L 76.8402 329.774"></path>
<path style="stroke:#000000; stroke-width:0.850394; stroke-linejoin:round; stroke-linecap:round; fill:none" d="M 76.8402 331.454L 111.07 331.454"></path>
<path style="stroke:#000000; stroke-width:0.850394; stroke-linejoin:round; stroke-linecap:round; fill:none" d="M 111.07 376.184L 76.8402 376.184"></path>
<path style="stroke:#000000; stroke-width:0.850394; stroke-linejoin:round; stroke-linecap:round; fill:none" d="M 76.8402 377.864L 111.07 377.864"></path>
<path style="stroke:#000000; stroke-width:0.850394; stroke-linejoin:round; stroke-linecap:round; fill:none" d="M 231.82 515.414L 209.14 515.414"></path>
<path style="stroke:#000000; stroke-width:0.850394; stroke-linejoin:round; stroke-linecap:round; fill:none" d="M 209.14 517.094L 231.82 517.094"></path>
<path style="stroke:#000000; stroke-width:0.850394; stroke-linejoin:round; stroke-linecap:round; fill:none" d="M 177.22 515.414L 142.99 515.414"></path>
<path style="stroke:#000000; stroke-width:0.850394; stroke-linejoin:round; stroke-linecap:round; fill:none" d="M 142.99 517.094L 177.22 517.094"></path>
<path style="stroke:#000000; stroke-width:0.850394; stroke-linejoin:round; stroke-linecap:round; fill:none" d="M 111.07 648.134L 76.8402 648.134"></path>
<path style="stroke:#000000; stroke-width:0.850394; stroke-linejoin:round; stroke-linecap:round; fill:none" d="M 76.8402 649.814L 111.07 649.814"></path>
<path style="stroke:#000000; stroke-width:0.850394; stroke-linejoin:round; stroke-linecap:round; fill:none" d="M 111.07 422.594L 76.8402 422.594"></path>
<path style="stroke:#000000; stroke-width:0.850394; stroke-linejoin:round; stroke-linecap:round; fill:none" d="M 76.8402 424.274L 111.07 424.274"></path>
<path style="stroke:#000000; stroke-width:0.850394; stroke-linejoin:round; stroke-linecap:round; fill:none" d="M 76.8402 470.684L 111.07 470.684"></path>
<path style="stroke:#000000; stroke-width:0.850394; stroke-linejoin:round; stroke-linecap:round; fill:none" d="M 111.07 469.004L 76.8402 469.004"></path>
<path style="stroke:#000000; stroke-width:0.850394; stroke-linejoin:round; stroke-linecap:round; fill:none" d="M 76.8402 238.634L 111.07 238.634"></path>
<path style="stroke:#000000; stroke-width:0.850394; stroke-linejoin:round; stroke-linecap:round; fill:none" d="M 111.07 236.954L 76.8402 236.954"></path>
<path style="stroke:#000000; stroke-width:0.850394; stroke-linejoin:round; stroke-linecap:round; fill:none" d="M 231.82 329.774L 209.14 329.774"></path>
<path style="stroke:#000000; stroke-width:0.850394; stroke-linejoin:round; stroke-linecap:round; fill:none" d="M 209.14 331.454L 231.82 331.454"></path>
<path style="stroke:#000000; stroke-width:0.850394; stroke-linejoin:round; stroke-linecap:round; fill:none" d="M 231.82 376.184L 209.14 376.184"></path>
<path style="stroke:#000000; stroke-width:0.850394; stroke-linejoin:round; stroke-linecap:round; fill:none" d="M 209.14 377.864L 231.82 377.864"></path>
<path style="stroke:#000000; stroke-width:0.850394; stroke-linejoin:round; stroke-linecap:round; fill:none" d="M 111.07 515.414L 76.8402 515.414"></path>
<path style="stroke:#000000; stroke-width:0.850394; stroke-linejoin:round; stroke-linecap:round; fill:none" d="M 76.8402 517.094L 111.07 517.094"></path>
<path style="stroke:#000000; stroke-width:0.850394; stroke-linejoin:round; stroke-linecap:round; fill:none" d="M 177.22 236.954L 142.99 236.954"></path>
<path style="stroke:#000000; stroke-width:0.850394; stroke-linejoin:round; stroke-linecap:round; fill:none" d="M 142.99 238.634L 177.22 238.634"></path>
<path style="stroke:#000000; stroke-width:0.850394; stroke-linejoin:round; stroke-linecap:round; fill:none" d="M 76.8402 556.994L 111.07 556.994"></path>
<path style="stroke:#000000; stroke-width:0.850394; stroke-linejoin:round; stroke-linecap:round; fill:none" d="M 111.07 555.314L 76.8402 555.314"></path>
<path style="stroke:#000000; stroke-width:0.850394; stroke-linejoin:round; stroke-linecap:round; fill:none" d="M 177.22 283.364L 142.99 283.364"></path>
<path style="stroke:#000000; stroke-width:0.850394; stroke-linejoin:round; stroke-linecap:round; fill:none" d="M 142.99 285.044L 177.22 285.044"></path>
<path style="stroke:#000000; stroke-width:0.850394; stroke-linejoin:round; stroke-linecap:round; fill:none" d="M 231.82 283.364L 209.14 283.364"></path>
<path style="stroke:#000000; stroke-width:0.850394; stroke-linejoin:round; stroke-linecap:round; fill:none" d="M 209.14 285.044L 231.82 285.044"></path>
<path style="stroke:#000000; stroke-width:0.850394; stroke-linejoin:round; stroke-linecap:round; fill:none" d="M 177.22 329.774L 142.99 329.774"></path>
<path style="stroke:#000000; stroke-width:0.850394; stroke-linejoin:round; stroke-linecap:round; fill:none" d="M 142.99 331.454L 177.22 331.454"></path>
<path style="stroke:#000000; stroke-width:0.850394; stroke-linejoin:round; stroke-linecap:round; fill:none" d="M 177.22 649.814L 177.22 190.544"></path>
<path style="stroke:#000000; stroke-width:0.850394; stroke-linejoin:round; stroke-linecap:round; fill:none" d="M 142.99 190.544L 142.99 649.814"></path>
<path style="stroke:#000000; stroke-width:0.850394; stroke-linejoin:round; stroke-linecap:round; fill:none" d="M 231.82 555.314L 209.14 555.314"></path>
<path style="stroke:#000000; stroke-width:0.850394; stroke-linejoin:round; stroke-linecap:round; fill:none" d="M 209.14 556.994L 231.82 556.994"></path>
<path style="stroke:#000000; stroke-width:0.850394; stroke-linejoin:round; stroke-linecap:round; fill:none" d="M 111.07 601.724L 76.8402 601.724"></path>
<path style="stroke:#000000; stroke-width:0.850394; stroke-linejoin:round; stroke-linecap:round; fill:none" d="M 76.8402 190.544L 76.8402 649.814"></path>
<path style="stroke:#000000; stroke-width:0.850394; stroke-linejoin:round; stroke-linecap:round; fill:none" d="M 76.8402 603.404L 111.07 603.404"></path>
<path style="stroke:#000000; stroke-width:0.850394; stroke-linejoin:round; stroke-linecap:round; fill:none" d="M 111.07 649.814L 111.07 190.544"></path>
<path style="stroke:#000000; stroke-width:0.850394; stroke-linejoin:round; stroke-linecap:round; fill:none" d="M 209.14 238.634L 231.82 238.634"></path>
<path style="stroke:#000000; stroke-width:0.850394; stroke-linejoin:round; stroke-linecap:round; fill:none" d="M 231.82 236.954L 209.14 236.954"></path>
<path style="stroke:#000000; stroke-width:0.850394; stroke-linejoin:round; stroke-linecap:round; fill:none" d="M 209.14 192.224L 231.82 192.224"></path>
<path style="stroke:#000000; stroke-width:0.850394; stroke-linejoin:round; stroke-linecap:round; fill:none" d="M 231.82 190.544L 209.14 190.544"></path>
<path style="stroke:#000000; stroke-width:0.850394; stroke-linejoin:round; stroke-linecap:round; fill:none" d="M 231.82 608.129L 231.82 190.544"></path>
<path style="stroke:#000000; stroke-width:0.850394; stroke-linejoin:round; stroke-linecap:round; fill:none" d="M 209.14 190.544L 209.14 608.129"></path>
<path style="stroke:#000000; stroke-width:0.850394; stroke-linejoin:round; stroke-linecap:round; fill:none" d="M 147.925 649.814L 147.925 556.994"></path>
<path style="stroke:#000000; stroke-width:0.850394; stroke-linejoin:round; stroke-linecap:round; fill:none" d="M 172.285 649.814L 172.285 556.994"></path>
<path style="stroke:#000000; stroke-width:0.850394; stroke-linejoin:round; stroke-linecap:round; fill:none" d="M 142.99 649.814L 177.22 649.814"></path>
<path style="stroke:#000000; stroke-width:0.850394; stroke-linejoin:round; stroke-linecap:round; fill:none" d="M 209.14 608.129L 231.82 608.129"></path>
<path style="stroke:#000000; stroke-width:0.850394; stroke-linejoin:round; stroke-linecap:round; fill:none" d="M 237.385 616.529L 384.385 616.529"></path>
<path style="stroke:#000000; stroke-width:0.850394; stroke-linejoin:round; stroke-linecap:round; fill:none" d="M 237.385 516.779L 237.385 616.529"></path>
<path style="stroke:#000000; stroke-width:0.850394; stroke-linejoin:round; stroke-linecap:round; fill:none" d="M 384.385 616.529L 384.385 516.779"></path>
<path style="stroke:#000000; stroke-width:0.850394; stroke-linejoin:round; stroke-linecap:round; fill:none" d="M 384.385 516.779L 237.385 516.779"></path>
<path style="stroke:#000000; stroke-width:0.850394; stroke-linejoin:round; stroke-linecap:round; fill:none" d="M 235.285 187.079L 205.675 187.079"></path>
<path style="stroke:#000000; stroke-width:0.850394; stroke-linejoin:round; stroke-linecap:round; fill:none" d="M 235.285 616.529L 235.285 187.079"></path>
<path style="stroke:#000000; stroke-width:0.850394; stroke-linejoin:round; stroke-linecap:round; fill:none" d="M 205.675 616.529L 235.285 616.529"></path>
<path style="stroke:#000000; stroke-width:0.850394; stroke-linejoin:round; stroke-linecap:round; fill:none" d="M 205.675 187.079L 205.675 616.529"></path>
<path style="stroke:#000000; stroke-width:0.850394; stroke-linejoin:round; stroke-linecap:round; fill:none" d="M 139.525 653.279L 180.685 653.279"></path>
<path style="stroke:#000000; stroke-width:0.850394; stroke-linejoin:round; stroke-linecap:round; fill:none" d="M 139.525 187.079L 139.525 653.279"></path>
<path style="stroke:#000000; stroke-width:0.850394; stroke-linejoin:round; stroke-linecap:round; fill:none" d="M 180.685 653.279L 180.685 187.079"></path>
<path style="stroke:#000000; stroke-width:0.850394; stroke-linejoin:round; stroke-linecap:round; fill:none" d="M 180.685 187.079L 139.525 187.079"></path>
<path style="stroke:#000000; stroke-width:0.850394; stroke-linejoin:round; stroke-linecap:round; fill:none" d="M 114.535 653.279L 114.535 187.079"></path>
<path style="stroke:#000000; stroke-width:0.850394; stroke-linejoin:round; stroke-linecap:round; fill:none" d="M 73.3752 653.279L 114.535 653.279"></path>
<path style="stroke:#000000; stroke-width:0.850394; stroke-linejoin:round; stroke-linecap:round; fill:none" d="M 73.3752 187.079L 73.3752 653.279"></path>
<path style="stroke:#000000; stroke-width:0.850394; stroke-linejoin:round; stroke-linecap:round; fill:none" d="M 114.535 187.079L 73.3752 187.079"></path>
</g>
</svg>